<svg style="position: absolute; width: 0; height: 0;" width="0" height="0" version="1.1" xmlns="http://www.w3.org/2000/svg" xmlns:xlink="http://www.w3.org/1999/xlink">
<defs>
<symbol id="icon-analysis6" viewBox="0 0 1024 1024">
	<title>analysis6</title>
	<path class="path1" d="M979.415 34.398h-670.176c-24.623 0-44.585 19.96-44.585 44.585 0 15.66 8.083 29.422 20.297 37.378v39.669c3.334-0.161 6.687-0.248 10.059-0.248h47.466v-32.214h603.7v388.296h-404.568c-3.129 5.784-6.812 11.285-11.048 16.388-2.039 5.523-4.277 11.053-6.698 16.554-3.169 8.156-6.805 16.388-10.827 24.589h461.906c15.888 0 28.764-12.887 28.764-28.764v-424.269c12.214-7.957 20.297-21.72 20.297-37.378 0-24.625-19.964-44.587-44.585-44.587z"></path>
	<path class="path2" d="M556.433 290.678c-7.372-3.241-15.62-2.852-22.515 0.645 6.975 19.794 10.961 40.987 11.408 63.032l7.196-7.857 131.233 57.637c11.292 4.956 24.513 1.418 31.817-8.518l80.513-109.513 6.763 47.135c1.883 13.134 13.148 22.608 26.039 22.608 1.246 0 2.51-0.083 3.772-0.275 14.401-2.059 24.4-15.41 22.334-29.807l-15.993-111.512c-2.066-14.407-15.419-24.397-29.811-22.338l-111.519 15.986c-14.399 2.073-24.4 15.419-22.331 29.815 2.061 14.399 15.412 24.402 29.811 22.338l49.958-7.162-69.485 94.516-129.189-56.732z"></path>
	<path class="path3" d="M534.785 634.639l-99.961-30.293c-2.41-7.305-7.765-13.624-15.254-18.966 8.237-9.161 15.189-18.425 20.48-26.095 12.547-18.191 22.981-37.78 30.215-56.69 3.56-7.969 6.597-15.969 9.054-23.826 9.735-8.156 15.464-20.335 15.464-33.116v-31.303c0-8.985-2.827-17.771-8.027-25.056v-44.069c0-77.308-62.894-140.195-140.191-140.195h-45.451c-77.301 0-140.195 62.887-140.195 140.195v44.073c-5.197 7.285-8.024 16.074-8.024 25.052v31.303c0 12.773 5.729 24.938 15.462 33.112 2.457 7.844 5.496 15.861 9.054 23.848 7.229 18.892 17.675 38.485 30.215 56.654 5.286 7.678 12.243 16.951 20.484 26.11-7.491 5.342-12.846 11.66-15.261 18.966l-99.954 30.293c-70.376 20.225-112.546 324.294-112.546 324.294h0.009c-0.217 1.347-0.357 2.727-0.357 4.132 0 14.662 11.873 26.539 26.532 26.539h594.612c14.66 0 26.532-11.877 26.532-26.539 0-12.724-42.523-308.201-112.892-328.424zM296.94 713.352c-0.38 3.674-2.97 6.749-6.528 7.739-0.8 0.223-1.608 0.331-2.412 0.331-2.774 0-5.449-1.291-7.174-3.585l-25.248-33.483c-1.177-1.561-1.813-3.464-1.811-5.418l0.034-53.701c0.002-3.154 1.653-6.073 4.348-7.694 2.702-1.624 6.052-1.72 8.837-0.243 7.348 3.886 14.689 6.495 21.816 7.761 4.288 0.759 7.415 4.489 7.415 8.846v22.403c1.28 0.507 2.443 1.304 3.384 2.347 1.706 1.889 2.53 4.406 2.269 6.935l-4.929 47.763zM392.068 684.354l-25.213 33.469c-1.726 2.285-4.402 3.578-7.18 3.578-0.8 0-1.608-0.105-2.403-0.331-3.56-0.989-6.151-4.056-6.53-7.734l-4.922-47.747c-0.264-2.53 0.563-5.047 2.267-6.935 0.94-1.043 2.102-1.84 3.379-2.347v-22.403c0-4.357 3.131-8.083 7.421-8.846 7.12-1.264 14.457-3.868 21.804-7.756 2.789-1.474 6.142-1.374 8.84 0.243 2.698 1.624 4.348 4.549 4.348 7.694l0.004 53.697c-0.004 1.959-0.639 3.857-1.816 5.418zM347.979 577.518h-48.279c-10.667 0-31.258-14.269-53.235-46.146-17.351-25.139-29.407-52.969-32.243-74.443l-0.489-3.721-8.719-5.666c-2.548-1.657-4.087-4.494-4.087-7.538v-14.792c0-4.969 4.020-8.985 8.98-8.985h3.672v-16.027c0-3.406 1.923-6.521 4.974-8.040 12.373-6.178 36.922-16.536 62.342-16.536 20.279 0 37.099 6.747 49.983 20.053 16.058 16.598 34.559 25.007 55.001 25.007 11.569 0 23.535-2.731 35.551-8.118 2.778-1.244 6.001-0.994 8.558 0.654 1.197 0.777 2.178 1.816 2.874 3.006h4.902c4.965 0 8.985 4.018 8.985 8.985v14.796c0 3.040-1.541 5.876-4.089 7.533l-8.724 5.666-0.48 3.703c-2.841 21.483-14.894 49.322-32.248 74.465-21.974 31.872-42.566 46.141-53.23 46.141z"></path>
</symbol>
<symbol id="icon-line-chart1" viewBox="0 0 1024 1024">
	<title>line-chart1</title>
	<path class="path1" d="M1023.432 967.174c0-31.368-25.458-56.826-56.826-56.826h-852.386v-853.523c0-31.368-25.458-56.826-56.826-56.826s-56.826 25.458-56.826 56.826v853.523c0 62.622 51.030 113.651 113.651 113.651h852.386c31.368 0 56.826-25.458 56.826-56.826z"></path>
	<path class="path2" d="M374.254 473.586l-204.914 264.126c-9.66 12.388-7.387 30.232 5.001 39.893l44.892 34.891c12.388 9.66 30.231 7.387 39.892-5.001l174.909-225.371c9.547-12.388 23.867-20.23 39.437-21.709l193.549-18.752c15.002-1.477 28.867-8.75 38.415-20.457l198.436-241.168 47.734 39.551c18.184 15.002 45.688 2.728 46.483-20.912l6.933-194.003c0.682-18.298-16.025-32.504-33.982-28.867l-194.003 39.096c-23.413 4.66-30.913 34.436-12.502 49.779l51.825 42.96-168.886 204.914c-9.547 11.592-23.413 18.98-38.415 20.457l-195.481 18.866c-15.455 1.591-29.776 9.433-39.322 21.707z"></path>
</symbol>
<symbol id="icon-linebar-char1" viewBox="0 0 1024 1024">
	<title>linebar-char1</title>
	<path class="path1" d="M996.766 928.681h-942.298v-860.596c0-15.041-12.19-27.234-27.234-27.234-15.041 0-27.234 12.193-27.234 27.234v887.83c0 15.039 12.193 27.234 27.234 27.234h969.532c15.041 0 27.234-12.195 27.234-27.234 0-15.041-12.193-27.234-27.234-27.234z"></path>
	<path class="path2" d="M78.32 860.936c0 1.506 1.217 2.723 2.723 2.723h861.914c1.506 0 2.723-1.217 2.723-2.723 0-1.503-1.217-2.723-2.723-2.723h-40.761c2.841-2.26 4.698-5.708 4.698-9.616v-148.341h36.063c1.506 0 2.723-1.217 2.723-2.723 0-1.503-1.217-2.723-2.723-2.723h-36.063v-157.957h36.063c1.506 0 2.723-1.217 2.723-2.723 0-1.503-1.217-2.723-2.723-2.723h-36.063v-124.171c0-6.814-5.526-12.34-12.34-12.34h-172.767c-6.814 0-12.34 5.526-12.34 12.34v124.171h-336.098l145.958-40.652c3.423-0.956 6.626-2.565 9.426-4.75l144.545-112.556h269.68c1.506 0 2.723-1.217 2.723-2.723 0-1.503-1.217-2.723-2.723-2.723h-152.919c3.181-1.411 5.755-4.003 7.103-7.315l61.143-150.642h84.676c1.506 0 2.723-1.217 2.723-2.723 0-1.503-1.217-2.723-2.723-2.723h-83.554c0-2.982-0.972-5.932-2.865-8.361-2.99-3.837-7.816-5.804-12.618-5.12l-97.122 13.481h-665.758c-1.506 0-2.723 1.22-2.723 2.723 0 1.506 1.217 2.723 2.723 2.723h626.519l-25.023 3.472c-4.82 0.667-8.914 3.856-10.744 8.364s-1.117 9.649 1.874 13.489l33.324 42.796-115.369 89.834h-510.581c-1.506 0-2.723 1.22-2.723 2.723 0 1.506 1.217 2.723 2.723 2.723h503.582l-85.115 66.277-324.202 90.297c-1.31 0.365-2.555 0.85-3.761 1.386h-90.504c-1.506 0-2.723 1.22-2.723 2.723 0 1.506 1.217 2.723 2.723 2.723h82.47c-6.817 6.724-9.886 16.836-7.135 26.711 3.355 12.048 14.301 19.935 26.221 19.935 2.421 0 4.88-0.327 7.321-1.005l163.873-45.642h355.655v157.957h-98.723v-126.213c0-6.814-5.526-12.34-12.34-12.34h-172.767c-6.814 0-12.34 5.526-12.34 12.34v126.213h-98.723v-47.916c0-6.814-5.526-12.34-12.34-12.34h-172.767c-6.814 0-12.34 5.526-12.34 12.34v47.916h-36.063c-1.506 0-2.723 1.22-2.723 2.723 0 1.506 1.217 2.723 2.723 2.723h36.063v148.341c0 3.908 1.857 7.356 4.698 9.616h-40.761c-1.506 0-2.723 1.22-2.723 2.723zM740.453 321.138l33.324 42.793c1.408 1.803 3.225 3.175 5.245 4.069h-98.751l60.182-46.862zM709.447 700.255v148.341c0 3.908 1.857 7.356 4.698 9.616h-108.116c2.841-2.26 4.698-5.708 4.698-9.616v-148.341h98.721zM314.553 848.596v-148.341h98.723v148.341c0 3.908 1.857 7.356 4.698 9.616h-108.116c2.838-2.26 4.695-5.708 4.695-9.616z"></path>
</symbol>
<symbol id="icon-man-money" viewBox="0 0 1024 1024">
	<title>man-money</title>
	<path class="path1" d="M193.355 724.832h64.713v268.801c0 16.754 13.613 30.367 30.367 30.367h176.862c16.754 0 30.367-13.613 30.367-30.367v-546.608l79.373 90.368c9.948 11.309 24.294 17.801 39.374 17.801l155.605-0.106c16.754 0 30.367-13.613 30.367-30.367v-46.492c0-16.754-13.613-30.367-30.367-30.367h-106.704c-15.184 0-29.528-6.597-39.476-18.011l-98.117-112.777c-12.775-14.66-31.205-23.037-50.682-23.037h-19.058l-58.848 94.766-20.525-36.441 36.232-58.431h-88.483l36.231 58.431-20.524 36.336-58.849-94.766h-87.75c-16.754 0-30.367 13.613-30.367 30.367v370.060c-0.108 16.859 13.505 30.472 30.259 30.472z"></path>
	<path class="path2" d="M367.81 247.649c59.164 0.419 107.017-48.273 107.017-107.541v-78.745c0-14.451-11.727-26.179-26.179-26.179h-78.85c-59.164 0-107.96 47.854-107.541 107.018 0.525 58.012 47.437 105.028 105.553 105.447z"></path>
	<path class="path3" d="M657.449 246.392h59.897v69.74h-50.577c-15.917 0-28.796 12.88-28.796 28.796s12.88 28.796 28.796 28.796h50.577v32.566c0 15.917 12.88 28.796 28.796 28.796s28.796-12.88 28.796-28.796v-32.566h57.174c15.917 0 28.796-12.88 28.796-28.796v-127.332c0-15.917-12.88-28.796-28.796-28.796h-57.174v-69.74h42.723c15.917 0 28.796-12.88 28.796-28.796s-12.88-28.796-28.796-28.796h-42.828v-32.671c0-15.917-12.88-28.796-28.796-28.796s-28.691 12.88-28.691 28.796v32.566h-59.897c-15.917 0-28.796 12.88-28.796 28.796v127.332c-0.001 16.021 12.878 28.901 28.795 28.901zM774.938 246.392h28.378v69.74h-28.378v-69.74zM686.245 118.955h31.1v69.74h-31.1v-69.74z"></path>
</symbol>
<symbol id="icon-calendar1" viewBox="0 0 1024 1024">
	<title>calendar1</title>
	<path class="path1" d="M262.262 579.251c5.025 6.438 7.517 15.299 7.517 26.575v269.166c0 31.508-10.736 47.269-32.209 47.269-9.546 0-17.236-3.219-23.032-9.643-5.801-6.419-8.701-15.903-8.701-28.45v-213.925c-39.82 30.552-66.625 45.838-80.41 45.838-6.575 0-12.418-2.61-17.507-7.844-5.096-5.254-7.648-11.34-7.648-18.228 0-7.998 2.513-13.868 7.529-17.624 5.022-3.775 13.868-8.627 26.561-14.587 18.961-8.928 34.129-18.355 45.484-28.213 11.368-9.868 21.436-20.916 30.217-33.114 8.774-12.243 14.506-19.763 17.162-22.603 2.667-2.817 7.681-4.198 15.051-4.198 8.315-0.048 14.984 3.168 19.986 9.581zM401.133 578.436c-14.803 5.884-27.049 13.594-36.677 23.157-9.645 9.567-16.891 20.204-21.744 31.972-4.855 11.74-7.285 23.030-7.285 33.84 0 8.951 2.587 15.993 7.761 21.174 5.174 5.192 11.681 7.768 19.517 7.768 8.933 0 15.717-2.814 20.342-8.448 4.623-5.631 8.774-13.705 12.459-24.241 3.685-10.481 6.314-16.896 7.878-19.258 11.752-18.019 27.896-27.055 48.434-27.055 9.716 0 18.679 2.19 26.915 6.587 8.253 4.414 14.741 10.536 19.517 18.483 4.774 7.906 7.182 16.896 7.182 26.915 0 9.27-2.226 18.681-6.704 28.324-4.485 9.643-10.984 19.039-19.533 28.188-8.533 9.188-19.235 18.329-32.080 27.382-7.216 4.889-19.193 15.014-35.967 30.451s-35.579 33.994-56.422 55.602c-5.027 5.33-9.643 12.662-13.882 21.978-4.218 9.342-6.343 16.806-6.343 22.451 0 8.774 3.295 16.406 9.884 22.918 6.592 6.513 15.759 9.758 27.513 9.758h173.009c10.373 0 18.065-2.667 23.17-7.995 5.11-5.316 7.641-11.825 7.641-19.506 0-8.629-3.217-15.446-9.622-20.445-6.438-5.041-15.782-7.543-27.99-7.543h-122.746c3.931-5.934 7.763-11.040 11.536-15.288 8.779-10.66 24.946-25.633 48.546-44.902 23.584-19.29 40.415-33.422 50.421-42.435 10.031-9.002 19.86-21.47 29.514-37.378 9.631-15.89 14.46-33.567 14.46-53.001 0-12.372-2.327-24.354-6.941-35.843-4.602-11.54-11.060-21.688-19.386-30.451-8.335-8.763-17.964-15.676-28.919-20.675-16.917-7.522-37.385-11.295-61.371-11.295-19.915 0-37.27 2.941-52.087 8.813zM1024 320.472c0 174.24-141.751 316.010-316.013 316.010v330.337c0 29.054-23.66 52.716-52.725 52.716h-602.541c-29.066 0.002-52.721-23.662-52.721-52.716v-552.359c0-0.825 0.209-1.585 0.246-2.396v-91.592c0-11.164 14.396-20.216 32.183-20.216h57.472v-37.741c0-33.422 27.161-60.585 60.565-60.585 33.41 0 60.571 27.161 60.571 60.585v37.741h94.88v-37.741c0-33.422 27.175-60.585 60.587-60.585 16.489 0 31.255 6.785 42.132 17.518 42.244-124.835 160.43-214.987 299.349-214.987 174.263 0 316.015 141.763 316.015 316.010zM336.056 300.256h56.647c0.756-11.906 2.19-23.623 4.232-35.133v-2.596c0-16.792-13.661-30.449-30.428-30.449-16.804 0-30.449 13.672-30.449 30.449v37.73zM120.012 300.256h60.905v-37.741c0-16.79-13.672-30.449-30.449-30.449-16.772 0-30.456 13.672-30.456 30.449v37.741zM662.844 633.199c-80.183-11.529-150.762-53.268-199.75-113.288h-417.916v446.911c0 4.147 3.4 7.515 7.543 7.515h602.58c4.124 0 7.543-3.37 7.543-7.515v-333.623zM972.501 320.472c0-145.848-118.678-264.514-264.514-264.514-145.852 0-264.512 118.666-264.512 264.514 0 145.846 118.659 264.512 264.512 264.512 145.848 0 264.514-118.666 264.514-264.512zM889.256 193.036c-9.234-10.856-25.489-12.119-36.271-2.911l-148.001 126.122-154.169-87.105c-12.347-7-28.089-2.619-35.083 9.764-6.989 12.37-2.61 28.087 9.76 35.076l169.811 95.951c3.961 2.238 8.322 3.338 12.648 3.338 5.983 0 11.94-2.086 16.694-6.153l161.703-137.791c10.86-9.231 12.131-25.482 2.909-36.291z"></path>
</symbol>
<symbol id="icon-line-chart2" viewBox="0 0 1024 1024">
	<title>line-chart2</title>
	<path class="path1" d="M989.867 897.117h-878.988l142.983-286.562 148.297 96.453c9.424 6.13 21.266 7.228 31.657 2.925 10.393-4.293 18.001-13.435 20.338-24.431l57.939-272.179 162.917 83.318c13.773 7.048 30.559 3.946 40.908-7.556l135.619-150.675 4.265 45.632c1.649 17.692 16.529 30.963 33.948 30.963 1.062 0 2.135-0.049 3.214-0.15 18.771-1.753 32.563-18.388 30.813-37.159l-12.111-129.698c-1.759-18.771-18.375-32.571-37.159-30.813l-129.696 12.105c-18.768 1.753-32.566 18.388-30.816 37.156 1.761 18.771 18.347 32.569 37.162 30.813l49.755-4.645-118.175 131.299-179.211-91.652c-9.454-4.839-20.625-4.994-30.209-0.431-9.59 4.563-16.507 13.328-18.719 23.716l-56.863 267.144-138.718-90.221c-8.157-5.306-18.192-6.881-27.574-4.323-9.388 2.553-17.239 8.989-21.578 17.692l-141.599 283.787v-736.873c0-18.853-15.284-34.133-34.133-34.133s-34.133 15.281-34.133 34.133v838.5c0 18.85 15.284 34.133 34.133 34.133h955.733c18.847 0 34.133-15.284 34.133-34.133s-15.286-34.133-34.133-34.133z"></path>
</symbol>
<symbol id="icon-line-chart3" viewBox="0 0 1024 1024">
	<title>line-chart3</title>
	<path class="path1" d="M984 730.187h-738.667v-620.411c0-22.091-17.909-40-40-40s-40 17.909-40 40v620.411h-125.333c-22.091 0-40 17.909-40 40s17.909 40 40 40h125.333v104.037c0 22.091 17.909 40 40 40s40-17.909 40-40v-104.037h738.667c22.091 0 40-17.909 40-40s-17.909-40-40-40z"></path>
	<path class="path2" d="M344 662.731c29.408 0 53.333-23.925 53.333-53.333 0-12.173-4.144-23.371-11.035-32.357l96.485-232.509 98.576 203.232c-4.693 7.939-7.435 17.157-7.435 27.027 0 29.408 23.925 53.333 53.333 53.333s53.333-23.925 53.333-53.333c0-7.44-1.541-14.523-4.304-20.963l37.115-47.648c2.883 0.485 5.824 0.797 8.84 0.797 2.76 0 5.453-0.277 8.101-0.683l34.541 46.909c-2.941 6.608-4.608 13.901-4.608 21.589 0 29.408 23.925 53.333 53.333 53.333s53.333-23.925 53.333-53.333c0-11.107-3.419-21.424-9.251-29.971l72.261-144.907c27.587-2.013 49.429-25.045 49.429-53.136 0-29.408-23.925-53.333-53.333-53.333s-53.333 23.925-53.333 53.333c0 11.083 3.403 21.387 9.213 29.923l-72.285 144.957c-0.557 0.043-1.125 0.048-1.677 0.104l-36.027-48.925c2.312-5.965 3.632-12.421 3.632-19.195 0-29.408-23.925-53.333-53.333-53.333s-53.333 23.925-53.333 53.333c0 6.52 1.235 12.741 3.384 18.523l-38.717 49.701c-1.867-0.221-3.763-0.355-5.685-0.379l-102.229-210.765c6.368-8.784 10.168-19.544 10.168-31.2 0-29.408-23.925-53.333-53.333-53.333s-53.333 23.925-53.333 53.333c0 11.555 3.731 22.232 10 30.973l-102.115 246.075c-26.128 3.424-46.384 25.779-46.384 52.829 0.005 29.408 23.931 53.331 53.339 53.331z"></path>
</symbol>
<symbol id="icon-coins1" viewBox="0 0 1024 1024">
	<title>coins1</title>
	<path class="path1" d="M962.581 121.593c-32.588-13.676-67.858-22.682-102.222-30.596-68.306-15.712-139.705-15.164-208.074 0.443-10.129 2.302-20.233 5.096-30.27 8.25 7.689 8.984 12.444 18.154 13.91 27.527 1.319 8.563 1.82 17.385 2.042 26.293 96.077-30.386 199.643-22.422 293.326 17.081-86.451 51.393-200.409 48.942-293.805 9.873-0.577 10.592-1.365 21.212-2.252 31.721-0.808 9.484-1.474 18.447-1.972 27.142 107.901 39.565 234.194 33.693 332.061-25.471-0.443 15.24-0.71 30.487-1.077 45.727-102.189 56.714-225.82 63.629-332.015 17.070-0.4 19.877-0.754 39.785-1.044 59.735 106.827 39.875 227.786 34.541 331.716-13.621-0.288 17.686-0.354 35.384-0.566 53.064-106.272 50.613-222.272 39.528-331.792 6.634-0.122 10.358-0.201 20.751-0.288 31.135 3.425-0.616 6.833-1.26 10.293-1.747 13.355-1.909 26.898-2.879 40.285-2.879 61.161 0 118.851 20.017 166.889 54.307 38.523-3.75 76.657-12.291 113.947-26.85-0.1 13.571-0.076 27.153-0.155 40.729-20.087 13.366-40.952 24.076-62.293 32.503 12.634 14.253 24.058 29.726 34.019 46.277 9.449-4.17 18.822-8.628 28.029-13.654-0.055 19.336-0.223 38.678-0.223 58.022 0 1.485-1.387 3.305-3.574 5.255 6.511 16.972 11.625 34.674 15.196 52.976 11.535-7.189 22.785-14.687 33.099-22.715 6.376-4.95 9.148-10.76 9.55-16.551 0.808-2.65 1.387-5.478 1.387-8.694 0-116.033 0.188-232.137 2.829-348.181 0.686-29.925 7.51-65.809 2.84-95.245-3.193-20.166-44.268-39.056-59.796-45.561z"></path>
	<path class="path2" d="M391.075 742.707c-0.649 0.135-1.276 0.301-1.92 0.422-22.206 4.093-44.833 6.61-67.537 7.431-5.496 0.199-11.005 0.288-16.511 0.288-29.816 0-59.619-2.951-88.664-9.141-24.707-5.28-48.909-13.198-71.921-23.792-9.712-4.471-68.97-30.469-68.981-41.738 0-24.137-0.227-48.274-0.284-72.408 75.759 37.035 157.278 57.146 238.172 57.146 27.38 0 54.678-2.418 81.685-7.145 5.138-27.308 13.82-53.442 25.578-77.821-35.766 10.070-72.354 15.129-109.105 15.129-77.882 0-156.413-21.784-228.994-61.934-2.58-1.42-5.12-2.44-7.643-3.174-0.127-22.927-0.090-45.86-0.271-68.78 86.844 29.91 176.755 49.309 265.845 49.309 48.533 0 96.816-5.863 144.272-18.8 13.881-13.189 29.045-25.013 45.294-35.255 23.626-14.869 49.615-26.325 77.388-33.77 0.144-14.447 0.245-28.894 0.411-43.33 0.199-16.044 0.476-32.094 0.721-48.156 0.321-20.458 0.642-40.901 1.075-61.36 0.111-5.052 0.155-10.116 0.266-15.174 0.144-6.538 0.566-13.353 1.053-20.257 1.376-19.539 3.55-40.154 4.205-60.158 0.1-2.951 0.188-5.891 0.212-8.814 0.055-10.609-0.443-20.941-1.964-30.709-1.21-7.885-6.955-15.607-14.851-22.765-17.516-15.889-45.689-28.94-58.887-34.598-40.192-17.219-83.673-28.567-126.073-38.527-41.434-9.733-83.821-14.515-126.21-14.515-43.763 0-87.55 5.085-130.38 15.072-48.429 11.291-96.538 31.068-140.030 55.58-13.993 7.881-18.318 20.793-16.444 33.071-0.411 2.411-0.66 4.941-0.559 7.715 6.522 185.729 6.861 371.547 6.861 557.376 0 4.050 0.703 7.619 1.713 10.948 0.494 7.3 3.932 14.617 11.769 20.854 80.827 64.267 188.673 100.758 294.403 100.758 30.679 0 61.157-3.193 90.754-9.55-5.701-17.403-9.993-35.506-12.667-54.184-0.708-5.092-1.295-10.172-1.782-15.242zM288.418 90.13c72.216 0 144.578 15.574 212.716 44.912-55.565 33.73-120.376 49.088-185.98 49.088-75.097 0-151.256-20.105-215.916-55.753 60.868-25.934 124.974-38.248 189.18-38.248zM70.39 192.775c72.314 39.82 155.581 60.685 238.327 60.685 75.77 0 150.994-17.73 217.098-54.167 5.788-3.189 11.625-6.289 17.269-9.777-0.555 19.194-0.865 38.389-1.308 57.583-4.738 2.685-9.618 5.057-14.421 7.564-66.591 34.722-139.803 52.649-212.993 52.649-82.963 0-165.775-22.715-238.661-69.125-1.463-0.933-2.916-1.525-4.369-2.208-0.332-14.399-0.548-28.8-0.941-43.204zM73.157 317.487c74.863 40.113 157.948 59.846 241.123 59.846 73.306 0 146.647-15.517 214.551-45.722 3.761-1.664 7.566-3.189 11.293-4.958-0.367 22.271-0.443 44.545-0.699 66.816-3.204 1.553-6.444 2.861-9.672 4.325-60.84 27.723-124.153 39.311-187.937 39.311-90.221 0-181.393-22.75-267.953-54.235-0.262-21.769-0.339-43.575-0.706-65.383z"></path>
	<path class="path3" d="M947.972 672.807c-1.942-8.497-4.203-16.839-6.798-25.045-2.883-9.052-6.112-17.903-9.716-26.555-7.888-18.899-17.315-36.891-28.374-53.507-11.326-17.014-24.279-32.553-38.365-46.651-23.37-23.398-50.091-42.378-78.985-55.86-31.467-14.698-65.366-23.042-100.182-23.042-12.245 0-24.657 0.976-37.002 2.883-4.192 0.642-8.362 1.409-12.534 2.27-2.062 0.432-4.058 0.955-6.088 1.435-3.827 0.893-7.619 1.859-11.38 2.918-3.838 1.075-7.643 2.224-11.404 3.46-7.322 2.422-14.508 5.103-21.529 8.126-16.636 7.165-32.365 16-47.074 26.216-2.774 1.918-5.502 3.871-8.196 5.889-1.088 0.821-2.141 1.664-3.207 2.49-3.892 3.001-7.671 6.112-11.38 9.301-2.014 1.737-4.032 3.445-6.003 5.24-9.412 8.576-18.217 17.793-26.404 27.531-5.146 6.136-10.022 12.514-14.642 19.058-18.835 26.642-33.165 56.524-42.083 88.225-1.182 4.17-2.245 8.364-3.228 12.58-0.944 4.039-1.791 8.097-2.551 12.167-0.022 0.090-0.039 0.19-0.061 0.256-2.484 13.464-3.982 27.173-4.46 41.017-0.138 3.949-0.194 7.874-0.149 11.835 0.035 3.892 0.133 7.798 0.339 11.712 0.419 8.073 1.158 16.184 2.318 24.303 2.23 15.585 5.852 30.657 10.404 45.279 1.138 3.637 2.35 7.221 3.622 10.801 1.276 3.595 2.639 7.145 4.043 10.659 41.561 103.744 140.070 175.895 251.164 175.895 12.256 0 24.646-0.874 36.847-2.628 61.438-8.783 145.126-59.564 182.716-110.876 42.195-57.588 57.413-130.972 42.837-206.598-0.664-3.663-1.662-7.189-2.494-10.784zM489.354 638.712c2.069-5.138 4.281-10.194 6.699-15.153 9.135-18.68 20.707-36.004 34.407-51.5 21.042-23.813 46.873-43.291 76.344-56.148 3.716-1.608 7.577-2.918 11.393-4.325 3.759-1.387 7.51-2.794 11.367-3.975 2.918-0.887 5.924-1.564 8.897-2.328 3.038-0.771 6-1.737 9.096-2.385 12.667-2.634 25.443-3.971 37.99-3.971 39.499 0 74.87 12.807 105.018 33.324 20.244 13.787 38.079 31.081 53.129 50.537 14.476 18.702 26.443 39.287 35.43 60.652 7.034 16.736 12.344 33.874 15.607 50.844 0.155 0.754 0.199 1.488 0.321 2.239 10.826 59.143-0.865 115.911-33.21 160.067-28.903 39.453-97.995 81.515-144.958 88.238-9.55 1.352-19.224 2.051-28.796 2.051-87.017 0-164.405-56.648-197.847-138.394-1.431-3.504-2.739-7.053-4.008-10.635-1.26-3.584-2.418-7.2-3.521-10.86-3.294-11.026-5.985-22.317-7.665-34.008-1.785-12.433-2.263-24.823-1.907-37.112 0.122-4.305 0.393-8.587 0.76-12.846 0.382-4.393 0.703-8.794 1.341-13.132 1.859-12.601 4.915-24.901 8.814-36.882 1.612-4.847 3.403-9.572 5.299-14.296z"></path>
	<path class="path4" d="M581.65 662.802c4.86 13.755 13.154 26.044 23.571 35.281 3.161 2.807 6.531 5.247 10.050 7.444 3.349 2.084 6.822 3.903 10.415 5.356 0.699 0.277 1.387 0.677 2.097 0.933 12.68 4.591 25.867 7.464 38.455 9.784 0.843 25.434 1.477 51.854 1.907 80.383-13.864-7.654-27.374-17.946-36.657-28.040-5.157-5.633-11.612-8.606-18.691-8.606-10.559 0-20.985 6.955-25.345 16.904-4.039 9.207-2.287 18.921 4.825 26.686 19.198 20.919 47.505 39.399 76.344 49.958l0.055 8.53c-0.046 7.355 2.516 13.844 7.387 18.757 5.157 5.168 12.534 8.143 20.22 8.143 11.913 0 24.77-7.608 24.869-24.357l-0.011-1.619c22.118-0.71 40.908-8.043 55.86-21.874 25.954-23.971 42.083-58.166 41.028-87.072-0.609-17.062-7.121-32.169-18.822-44.246-2.173-2.23-4.458-4.393-6.977-6.422-22.418-17.903-49.259-25.821-75.305-31.389-0.288-7.431-0.631-14.853-0.92-22.295-0.489-11.913-0.965-23.813-1.488-35.738 8.919 2.374 17.547 5.435 25.255 8.984 14.729 6.809 29.794-1.697 33.32-17.713 1.621-7.311 0.443-15.852-4.423-22.684-2.54-3.571-6.035-6.71-10.793-8.895-13.709-6.335-29.427-11.149-45.733-14.032v-0.232c-0.743-17.247-15.319-26.533-28.639-26.533-7.11 0-13.442 2.508-17.824 7.077-4.235 4.436-6.324 10.472-6.011 17.392l0.022 0.378c-5.491 0.644-10.725 1.643-15.817 2.818-5.048 1.197-9.939 2.595-14.541 4.316-3.993 1.474-7.752 3.204-11.38 5.068-4.004 2.062-7.831 4.305-11.369 6.811-4.991 3.525-9.539 7.499-13.554 11.9-2.35 2.586-4.347 5.38-6.188 8.263-9.497 14.864-12.335 33.564-7.588 52.797 0.633 2.68 1.498 5.231 2.396 7.783zM766.189 763.849c-0.022 16.45-15.716 37.603-26.511 44.934-5.435 3.683-11.78 5.935-18.945 6.778-0.343-29.239-0.933-56.768-1.785-83.788 16.271 4.305 28.695 9.705 39.586 17.127 5.168 3.523 7.663 8.405 7.654 14.95zM664.109 667.106c-3.539-0.754-7.066-1.575-10.537-2.44-12.237-3.071-21.983-12.944-23.139-23.492-0.478-4.281 0.62-8.163 3.041-11.581 2.184-3.082 5.446-5.823 9.873-8.054 5.391-2.704 11.623-4.659 18.632-5.878 0.367 8.696 0.71 17.394 1.088 26.1 0.354 8.451 0.697 16.894 1.042 25.345z"></path>
</symbol>
<symbol id="icon-coins2" viewBox="0 0 1024 1024">
	<title>coins2</title>
	<path class="path1" d="M276.211 124.547l27.77 12.117c-19.263 11.795-27.955 23.328-25.757 34.311 2.262 11.348 12.635 21.132 30.86 29.089 16.787 7.328 36.566 11.295 60.475 12.13 23.576 0.817 59.946-5.814 108.14-19.726 11.972-3.465 21.356-5.481 27.874-5.983 6.38-0.502 11.523 0.214 16.195 2.26 3.216 1.403 13.021 5.674-11.618 16.436-16.005 6.985-32.578 9.86-49.248 8.549-13.19-1.028-26.547 1.403-34.132 6.226l-14.808 9.416c-6.472 4.112-7.783 9.371-3.515 13.996 4.26 4.625 13.56 8.002 24.747 9.007 36.566 3.282 72.658-0.928 107.334-12.453l37.485 16.367c13.322 5.814 34.903 5.814 48.22 0.013 13.312-5.817 13.312-15.241 0-21.052l-38.791-16.935c17.038-10.825 26-21.766 26.629-32.588 0.751-12.662-9.477-23.714-30.389-32.845-14.926-6.517-31.951-10.55-50.572-11.982-18.624-1.446-36.278-0.64-52.438 2.392-15.944 2.997-40.21 9.044-71.976 17.934-13.824 3.829-23.201 5.782-27.9 5.811-4.49 0.024-8.515-0.687-11.634-2.053-11.068-4.82-1.768-10.917 7.981-15.172 12.104-5.283 25.019-7.778 38.379-7.426 13.394 0.354 26.026-2.772 32.239-7.957l8.589-7.165c5.434-4.53 5.143-9.963-0.758-14.387-5.896-4.416-16.586-7.207-28.299-7.381-25.421-0.365-49.938 3.034-74.606 10.341l-28.262-12.334c-13.32-5.814-34.903-5.814-48.22 0-13.304 5.809-13.304 15.233 0.005 21.045z"></path>
	<path class="path2" d="M862.732 274.882c2.257-9.385 3.412-18.944 3.412-28.632v-30.625c0-61.191-45.686-117.142-128.643-157.542-76.908-37.456-178.576-58.083-286.275-58.083s-209.365 20.627-286.275 58.083c-82.957 40.4-128.643 96.351-128.643 157.542v30.625c0 60.343 44.452 115.577 125.234 155.84-2.241 9.34-3.687 20.978-3.687 28.495v5.587c-78.459 40.099-121.547 94.575-121.547 153.995v30.625c0 41.262 20.801 80.132 59.769 113.471-5.272 14.091-8.021 28.629-8.021 43.487v30.625c0 61.191 45.686 117.142 128.643 157.542 76.911 37.456 178.576 58.083 286.275 58.083s209.367-20.627 286.275-58.083c82.957-40.4 128.643-96.351 128.643-157.542v-30.625c0-41.254-20.783-80.119-59.735-113.452 5.267-14.094 7.984-28.645 7.984-43.506v-5.587c78.459-40.099 121.547-94.575 121.547-153.998v-30.625c0.003-60.272-44.349-115.448-124.956-155.7zM94.292 189.71c12.017-30.553 44.748-60.219 93.801-84.107 69.844-34.015 163.293-52.747 263.132-52.747s193.291 18.732 263.132 52.747c49.056 23.888 81.784 53.556 93.801 84.107-42.454 73.845-189.953 127.689-356.935 127.689s-314.479-53.842-356.93-127.689zM94.292 564.255c9.77-24.84 33.302-49.074 68.102-70.113 13.407 48.175 56.299 91.589 124.106 124.61 76.911 37.456 178.576 58.083 286.275 58.083 10.526 0 20.978-0.256 31.373-0.645-47.018 10.111-98.941 15.756-152.92 15.756-166.982-0.003-314.484-53.847-356.935-127.692zM859.909 751.835c-42.454 73.845-189.953 127.689-356.935 127.689-145.058 0-275.334-40.654-334.889-99.734 76.533 36.51 176.877 56.627 283.141 56.627 107.699 0 209.367-20.627 286.275-58.083 39.848-19.409 71.070-42.409 92.786-67.851 14.015 13.275 24.063 27.213 29.623 41.352zM572.772 532.361c-145.792 0-276.724-41.048-335.867-100.614 63.868 19.594 137.534 30.128 214.32 30.128 107.699 0 209.367-20.627 286.275-58.081 46.571-22.68 81.393-50.263 102.982-80.92 46.489 23.481 77.59 52.214 89.226 81.797-42.451 73.842-189.953 127.689-356.935 127.689z"></path>
</symbol>
<symbol id="icon-chart-pc" viewBox="0 0 1024 1024">
	<title>chart-pc</title>
	<path class="path1" d="M499.728 610.518c67.133 0 121.554-54.424 121.554-121.559h-121.554v-121.552c-67.138 0-121.557 54.421-121.557 121.552 0 67.138 54.418 121.559 121.557 121.559z"></path>
	<path class="path2" d="M524.272 342.857v121.559h121.557c-0.003-67.136-54.416-121.559-121.557-121.559z"></path>
	<path class="path3" d="M406.405 581.592l-7.358-7.36-26.228 26.228h-72.43v10.407h76.741z"></path>
	<path class="path4" d="M650.629 366.853h52.168v-10.407h-56.479l-22.651 22.654 7.358 7.36z"></path>
	<path class="path5" d="M210.196 313.616h78.703v15.611h-78.703v-15.611z"></path>
	<path class="path6" d="M210.196 344.837h42.279v15.611h-42.279v-15.611z"></path>
	<path class="path7" d="M210.196 376.058h68.296v15.611h-68.296v-15.611z"></path>
	<path class="path8" d="M735.751 619.973c0 12.573-10.192 22.765-22.765 22.765s-22.765-10.192-22.765-22.765c0-12.573 10.192-22.765 22.765-22.765s22.765 10.192 22.765 22.765z"></path>
	<path class="path9" d="M805.999 619.973c0 12.573-10.192 22.765-22.765 22.765s-22.765-10.192-22.765-22.765c0-12.573 10.192-22.765 22.765-22.765s22.765 10.192 22.765 22.765z"></path>
	<path class="path10" d="M1005.114 733.813h-53.346l-0.005-499.748c0-21.956-17.861-39.82-39.817-39.82h-799.544c-21.956 0-39.823 17.864-39.823 39.82v499.748h-53.687c-10.417 0-18.891 8.477-18.891 18.899 0 42.482 34.562 77.043 77.046 77.043h613.292v-34.052c0-10.917 8.882-19.797 19.799-19.797 10.912 0 19.792 8.882 19.792 19.797v34.052h37.203v-34.052c0-10.917 8.88-19.797 19.794-19.797 10.917 0 19.799 8.882 19.799 19.797v34.052h140.222c42.487 0 77.048-34.562 77.048-77.043 0.005-10.423-8.466-18.899-18.881-18.899zM882.147 707.454h-330.254v20.559h-79.786v-20.559h-329.908v-443.589h739.945v443.589z"></path>
</symbol>
<symbol id="icon-cashin-cashout" viewBox="0 0 1024 1024">
	<title>cashin-cashout</title>
	<path class="path1" d="M999.355 290.249l-201.518-233.184c-19.282-22.304-47.24-35.098-76.714-35.098-29.48 0-57.455 12.794-76.723 35.098l-151.973 175.848c-6.028 1.265-11.834 3.13-17.361 5.53-0.875-55.163-45.994-99.774-101.362-99.774h-141.647c-55.908 0-101.395 45.493-101.395 101.401v325.983h-29.3c-39.562 0-75.754 23.248-92.199 59.212-16.475 35.984-10.389 78.58 15.485 108.491l201.515 233.179c19.287 22.304 47.242 35.098 76.717 35.098 29.48 0 57.455-12.794 76.723-35.098l152.332-176.255c5.906-1.373 11.582-3.324 16.985-5.784 0.531 55.465 45.789 100.432 101.382 100.432h141.65c55.908 0 101.398-45.493 101.398-101.401v-325.975h29.297c39.562 0 75.754-23.253 92.202-59.212 16.464-35.984 10.381-78.582-15.493-108.491zM306.010 903.342c-1.564 1.816-4.677 1.821-6.257 0l-201.523-233.195c-1.054-1.207-1.295-2.936-0.62-4.412 0.667-1.475 2.145-2.422 3.753-2.422h126.564v-423.244c0-2.28 1.849-4.129 4.129-4.129h141.65c2.283 0 4.146 1.849 4.146 4.129v101.265c-3.194 3.13-6.266 6.39-9.155 9.822-24.042 28.633-36.745 63.375-36.745 100.46 0 27.637 7.093 53.043 21.105 75.806-6.648 7.384-12.13 15.925-16.143 25.345-11.992 28.185-9.089 60.269 7.757 85.839 18.479 28.027 44.085 49.061 75.466 62.298v1.043c0 18.936 5.812 36.54 15.734 51.131l-129.86 150.262zM605.347 622.896c-15.999 15.199-37.401 25.334-63.74 30.233v48.817c0 16.758-13.58 30.335-30.346 30.335-16.752 0-30.335-13.578-30.335-30.335v-47.201c-38.442-5.206-67.213-21.864-85.49-49.595-5.599-8.496-6.576-19.221-2.588-28.578 3.98-9.352 12.385-16.102 22.379-17.945l22.904-4.265c11.715-2.173 23.624 2.718 30.438 12.504 8.613 12.385 23.189 18.664 43.332 18.664 31.013 0 31.013-12.33 31.013-16.384 0-5.881-2.206-10.151-6.941-13.453-4.829-3.368-13.636-6.363-26.167-8.914-50.384-10.27-82.844-23.605-96.486-39.626-13.857-16.243-20.58-34.412-20.58-55.534 0-22.935 7.569-43.573 22.506-61.363 14.463-17.212 36.56-28.384 65.674-33.261v-34.935c0-16.758 13.583-30.341 30.335-30.341 16.766 0 30.346 13.583 30.346 30.341v35.588c26.059 4.973 46.409 15.504 61.852 32.026 7.132 7.622 9.844 18.374 7.187 28.464-2.665 10.091-10.32 18.103-20.281 21.211l-15.714 4.918c-11.397 3.578-23.829 0.113-31.763-8.817-7.907-8.914-19.636-13.437-34.871-13.437-12.271 0-26.901 2.925-26.901 16.838 0 3.941 1.514 7.497 4.359 10.287 2.995 2.914 11.721 6.011 25.94 9.183 32.812 7.179 56.796 13.73 71.151 19.437 14.56 5.801 26.818 15.742 36.465 29.552 9.639 13.782 14.541 30.319 14.541 49.113 0.006 26.322-9.49 48.684-28.221 66.471zM926.393 358.264c-0.667 1.481-2.145 2.422-3.756 2.422h-126.564v423.244c0 2.28-1.849 4.129-4.129 4.129h-141.65c-2.283 0-4.146-1.849-4.146-4.129v-115.983c0.354-0.329 0.717-0.642 1.074-0.98 30.839-29.297 47.14-67.518 47.14-110.539 0-31.077-8.823-60.103-25.495-83.907-3.299-4.73-6.797-9.199-10.484-13.412 4.874-7.757 8.624-16.315 11.040-25.47 8.034-30.501-0.025-62.47-21.562-85.482-13.085-13.996-28.409-25.356-45.812-34.016-1.337-15.512-6.603-29.92-14.765-42.244l130.704-151.236c0.783-0.908 1.929-1.428 3.133-1.428 1.201 0 2.336 0.523 3.125 1.434l201.523 233.19c1.057 1.204 1.298 2.934 0.623 4.409z"></path>
</symbol>
<symbol id="icon-money2" viewBox="0 0 1024 1024">
	<title>money2</title>
	<path class="path1" d="M484.016 424.34l121.34 121.34c-4.611-29.362 7.086-63.935 33.606-90.452 26.522-26.527 61.101-38.226 90.462-33.618l-121.34-121.341-124.069 124.072z"></path>
	<path class="path2" d="M662.062 602.385l121.34 121.34 124.069-124.069-121.34-121.34c4.61 29.363-7.086 63.937-33.608 90.457-26.52 26.527-61.096 38.225-90.461 33.612z"></path>
	<path class="path3" d="M1020.019 590.345l-402.624-402.615c-5.314-5.319-13.933-5.319-19.247 0l-82.247 82.243-82.247-82.243c-5.314-5.319-13.933-5.319-19.247 0l-82.248 82.243-82.247-82.243c-5.314-5.319-13.933-5.319-19.247 0l-226.679 226.665c-2.552 2.557-3.987 6.020-3.987 9.631 0 3.616 1.436 7.079 3.987 9.631l402.622 402.615c2.657 2.662 6.144 3.989 9.626 3.989 3.484 0 6.969-1.327 9.626-3.989l82.247-82.242 82.242 82.242c2.657 2.662 6.144 3.989 9.623 3.989 3.484 0 6.969-1.327 9.626-3.989l82.243-82.242 82.243 82.242c2.657 2.662 6.144 3.989 9.623 3.989 3.484 0 6.969-1.327 9.626-3.989l226.68-226.665c2.552-2.552 3.986-6.015 3.986-9.631 0.007-3.619-1.427-7.079-3.981-9.631zM415.922 785.666l-361.329-361.325 186.011-186.011 61.599 61.599-30.971 30.97-30.627-30.63-124.067 124.070 121.34 121.34c-2.67-17.017 0.166-35.773 8.167-53.707l102.253 102.252c-17.934 8.008-36.695 10.839-53.712 8.165l121.336 121.34 30.939-30.941 30.971 30.971-61.912 61.907zM599.661 785.666l-361.329-361.325 186.011-186.011 61.599 61.599-30.971 30.97-30.627-30.63-124.069 124.070 121.34 121.34c-2.674-17.018 0.159-35.782 8.162-53.714l102.252 102.248c-17.93 8.005-36.689 10.846-53.705 8.174l121.336 121.34 30.939-30.941 30.97 30.97-61.909 61.911zM783.402 785.666l-361.329-361.325 186.011-186.011 361.329 361.33-186.011 186.006z"></path>
</symbol>
<symbol id="icon-talking-money" viewBox="0 0 1024 1024">
	<title>talking-money</title>
	<path class="path1" d="M280.581 724.822c107.366 0 194.713-87.347 194.713-194.711 0-107.34-87.347-194.666-194.713-194.666-107.363 0-194.708 87.327-194.708 194.666 0 107.363 87.345 194.711 194.708 194.711z"></path>
	<path class="path2" d="M517.253 819.783c-28.124-51.541-67.824-92.801-114.807-119.323-5.18-2.925-11.681-1.964-15.799 2.326l-106.066 110.601-106.069-110.601c-4.118-4.295-10.619-5.256-15.799-2.326-46.983 26.524-86.681 67.785-114.804 119.323-28.728 52.642-43.909 113.635-43.909 176.385 0 7.191 5.829 13.023 13.023 13.023h535.115c7.194 0 13.023-5.832 13.023-13.023 0-62.75-15.184-123.743-43.907-176.385z"></path>
	<path class="path3" d="M962.395 14.812h-371.651c-33.968 0-61.602 27.634-61.602 61.602v421.444c0 3.75 0.93 7.040 2.769 9.775 2.763 4.113 7.407 6.569 12.424 6.569h0.003c11.306-0.003 21.735-10.241 61.42-54.028 20.292-22.388 57.935-63.92 69.303-67.103h287.332c33.971 0 61.605-27.634 61.605-61.602v-255.055c0.003-33.968-27.631-61.602-61.602-61.602zM806.979 291.697v24.477c0 2.537-2.055 4.597-4.597 4.597h-35.234c-2.537 0-4.597-2.058-4.597-4.597v-25.378c-18.565-4.459-35.729-13.976-47.527-26.444l-6.847-7.233c-0.833-0.886-1.287-2.065-1.255-3.284s0.552-2.375 1.435-3.211l25.589-24.217c1.847-1.742 4.753-1.659 6.496 0.18l6.842 7.233c8.702 9.191 24.154 15.369 38.45 15.369 11.301 0 30.431-2.985 30.431-14.176 0.081-9.671-4.107-13.551-33.71-22.521-25.321-7.668-67.694-20.505-67.694-68.21 0-26.72 18.216-47.972 47.795-56.161v-26.214c0-2.539 2.060-4.597 4.597-4.597h35.234c2.542 0 4.597 2.058 4.597 4.597v23.782c15.296 2.258 30.15 7.527 41.268 14.705l8.36 5.402c2.13 1.38 2.745 4.222 1.365 6.355l-19.117 29.592c-1.375 2.128-4.219 2.743-6.352 1.367l-8.366-5.404c-7.91-5.107-21.813-8.816-33.069-8.816-11.843 0-31.89 3.243-31.89 15.39 0 11.423 4.74 16.184 36.148 25.696 26.134 7.915 65.631 19.878 65.259 65.217-0.005 28.79-20.432 50.176-53.611 56.505z"></path>
</symbol>
<symbol id="icon-bar-chart-money" viewBox="0 0 1024 1024">
	<title>bar-chart-money</title>
	<path class="path1" d="M160.594 418.903h-114.034c-25.709 0-46.559 20.85-46.559 46.559v512c0 25.687 20.85 46.538 46.559 46.538h114.034c25.709 0 46.538-20.85 46.538-46.538v-512c0-25.709-20.829-46.559-46.538-46.559z"></path>
	<path class="path2" d="M432.891 558.516h-114.034c-25.731 0-46.559 20.85-46.559 46.559v372.344c0 25.731 20.829 46.559 46.559 46.559h114.034c25.709 0 46.538-20.85 46.538-46.559v-372.344c0-25.709-20.829-46.559-46.538-46.559z"></path>
	<path class="path3" d="M705.144 558.516h-114.034c-25.709 0-46.538 20.85-46.538 46.559v372.344c0 25.731 20.829 46.559 46.538 46.559h114.034c25.731 0 46.559-20.85 46.559-46.559v-372.344c0-25.709-20.829-46.559-46.559-46.559z"></path>
	<path class="path4" d="M977.441 418.903h-114.034c-25.709 0-46.538 20.85-46.538 46.559v512c0 25.709 20.829 46.538 46.538 46.538h114.034c25.709 0 46.559-20.872 46.559-46.538v-512c0-25.709-20.85-46.559-46.559-46.559z"></path>
	<path class="path5" d="M525.573 280.402v83.794c25.36-1.678 52.093-13.573 52.093-41.483 0-28.803-29.304-37.234-52.093-42.311z"></path>
	<path class="path6" d="M452.695 180.115c0 21.177 15.752 33.422 47.496 39.783v-75.798c-28.846 0.85-47.496 17.8-47.496 36.014z"></path>
	<path class="path7" d="M512 0c-141.159 0-256 114.862-256 256 0 141.094 114.841 255.956 256 255.956s256-114.862 256-255.956c0-141.138-114.841-256-256-256zM525.573 407.399v26.21c0 7.212-5.534 14.401-12.767 14.401-7.146 0-12.615-7.19-12.615-14.401v-26.21c-71.527-1.743-107.106-44.49-107.106-77.933 0-16.885 10.218-26.646 26.21-26.646 47.409 0 10.545 58.412 80.896 61.353v-88.456c-62.747-11.395-100.744-38.912-100.744-85.885 0-57.54 47.845-87.214 100.744-88.87v-22.572c0-7.212 5.469-14.401 12.615-14.401 7.233 0 12.767 7.19 12.767 14.401v22.572c32.986 0.871 100.722 21.569 100.722 63.074 0 16.493-12.332 26.21-26.733 26.21-27.539 0-27.147-45.252-73.989-46.124v80.417c55.862 11.874 105.341 28.367 105.341 93.554 0 56.69-42.311 85.45-105.341 89.306z"></path>
</symbol>
<symbol id="icon-line-chart4" viewBox="0 0 1024 1024">
	<title>line-chart4</title>
	<path class="path1" d="M972.058 918.932h-868.174v-865.805c0-28.687-23.255-51.942-51.942-51.942s-51.942 23.255-51.942 51.942v917.747c0 28.687 23.255 51.942 51.942 51.942h920.116c28.687 0 51.942-23.255 51.942-51.942s-23.255-51.942-51.942-51.942z"></path>
	<path class="path2" d="M224.247 697.371c14.060 0 28.072-5.675 38.318-16.859l144.678-157.969 258.787 113.658c22.261 9.777 48.336 2.802 62.737-16.794l158.759-215.969 13.336 92.964c3.716 25.897 25.929 44.578 51.351 44.575 2.455 0 4.942-0.175 7.438-0.534 28.396-4.072 48.113-30.394 44.041-58.789l-31.539-219.896c-4.072-28.396-30.402-48.104-58.789-44.041l-219.893 31.539c-28.396 4.072-48.116 30.394-44.041 58.789 4.072 28.396 30.396 48.116 58.789 44.041l98.512-14.128-137.017 186.395-254.759-111.889c-20.364-8.943-44.166-3.927-59.19 12.475l-169.806 185.403c-19.376 21.154-17.933 54.011 3.22 73.387 9.97 9.133 22.54 13.641 35.068 13.641z"></path>
</symbol>
<symbol id="icon-finances4" viewBox="0 0 1024 1024">
	<title>finances4</title>
	<path class="path1" d="M894.406 589.23c-18.46-57.454-50.107-117.623-94.059-178.831-30.726-42.782-62.952-79.879-90.353-108.816 29.661 11.29 49.747 20.041 69.531 57.959 3.359 6.439 11.303 8.938 17.742 5.579l23.322-12.166c6.439-3.359 8.936-11.303 5.579-17.745-29.813-57.152-67.642-71.493-101.020-84.148-2.651-1.005-5.321-2.018-8.004-3.059 10.935-1.894 22.311-3.17 33.457-3.17 22.801 0 41.558 5.295 57.341 16.188 2.875 1.983 6.421 2.744 9.84 2.112 3.433-0.629 6.474-2.596 8.454-5.466l14.941-21.649c4.125-5.976 2.623-14.168-3.354-18.295-24.81-17.124-53.264-25.447-86.989-25.447-14.097 0-28.122 1.528-41.106 3.698 37.873-45.841 68.639-94.080 60.987-132.745-3.764-19.026-16.467-34.54-35.816-43.705-13.665-6.405-27.862-9.52-43.394-9.52-29.316 0-57.083 11.403-83.951 22.438-23.84 9.791-48.495 19.915-70.909 19.915-3.964 0-7.828-0.308-11.39-0.902-11.193-1.944-29.458-10.616-47.124-19.005-32.052-15.212-68.376-32.452-103.355-32.452-19.644 0-36.976 5.458-51.517 16.227-28.709 21.267-43.857 47.493-45.023 77.951-2.425 63.241 58.972 124.044 96.235 157.298-33.267 22.982-85.324 63.217-135.268 119.409-105.036 118.173-147.186 249.29-121.9 379.184 17.135 87.994 62.828 156.919 135.815 204.862 65.38 42.945 151.766 66.782 249.842 68.933 4.301 0.087 8.828 0.137 13.542 0.137h0.008c53.477 0 132.703-6.497 206.445-37.458 90.198-37.868 149.904-101.959 177.455-190.497 19.734-63.417 17.713-133-6.003-206.816zM544.957 765.701v34.78c0 3.606-2.922 6.531-6.531 6.531h-50.057c-3.604 0-6.523-2.925-6.523-6.531v-36.055c-26.383-6.337-50.773-19.855-67.534-37.576l-9.73-10.275c-1.186-1.26-1.828-2.938-1.781-4.669s0.776-3.372 2.031-4.564l36.361-34.409c2.62-2.475 6.758-2.357 9.228 0.258l9.725 10.272c12.363 13.063 34.317 21.841 54.626 21.841 16.061 0 43.234-4.243 43.234-20.144 0.121-13.739-5.832-19.255-47.9-31.997-35.974-10.901-96.174-29.135-96.174-96.913 0-37.96 25.873-68.163 67.91-79.792v-37.244c0-3.606 2.917-6.531 6.523-6.531h50.057c3.609 0 6.531 2.925 6.531 6.531v33.793c21.738 3.207 42.837 10.69 58.633 20.894l11.882 7.676c3.025 1.957 3.896 5.997 1.939 9.030l-27.165 42.040c-1.952 3.028-5.992 3.898-9.022 1.944l-11.887-7.678c-11.232-7.257-30.989-12.526-46.98-12.526-16.824 0-45.315 4.606-45.315 21.864 0 16.235 6.744 22.998 51.357 36.511 37.129 11.245 93.254 28.24 92.718 92.66 0.008 40.903-29.014 71.293-76.154 80.281zM618.367 219.929c-3.301 0.971-6.558 1.91-9.783 2.809-5.382 1.505-10.619 2.978-15.727 4.417l-2.249 0.634c-47.637 13.421-82.054 23.116-108.493 23.116-18.829 0-33.359-5.043-47.069-16.338-2.349-2.078-5.098-4.469-8.202-7.157-26.754-23.19-97.824-84.792-96.045-131.217 0.542-14.102 8.094-26.078 23.769-37.692 5.429-4.022 11.85-5.892 20.204-5.892 23.132 0 53.764 14.541 80.81 27.378 21.806 10.351 42.405 20.128 60.84 23.332 6.568 1.094 13.371 1.647 20.218 1.647 32.802 0 62.336-12.129 90.908-23.863 23.151-9.509 45.017-18.489 63.954-18.489 7.647 0 14.523 1.481 20.973 4.501 5.937 2.812 6.389 5.098 6.631 6.324 5.79 29.261-64.867 106.999-91.466 136.262-3.262 3.588-6.36 7-9.272 10.23z"></path>
</symbol>
<symbol id="icon-ipad-chart" viewBox="0 0 1024 1024">
	<title>ipad-chart</title>
	<path class="path1" d="M937.449 811.692l-23.727 8.593c-2.692-12.934-1.551-19.262 0.164-28.864 1.584-8.946 3.578-20.042 3.652-38.294 0.23-48.955-32.951-120.496-34.511-123.811l-0.591-1.108c-22.873-38.77-53.871-34.617-72.386-32.106-5.236 0.706-11.112 1.485-14.19 0.829-21.576-12.278-58.672-15.536-92.042-0.64-5.696 0.287-17.103 1.428-29.603 5.967-10.825 3.931-20.091 9.471-27.625 16.562-15.052-41.29-37.449-102.76-40.387-110.844-6.41-17.711-30.185-25.762-33-26.673-11.203-3.299-22.922-2.979-33.838 0.977-28.216 10.21-42.857 41.487-32.648 69.678l71.368 197.1c1.231 3.447 2.126 6.525 2.766 9.2-52.106-6.106-86.716 0.993-103.343 20.985-16.595 19.984-8.338 43.547-7.977 44.54 13.624 37.596 63.112 38.253 68.094 38.171 74.692 6.525 98.977 35.692 106.757 55.89l-25.819 9.348 35.052 96.818 318.876-115.465-35.044-96.851zM666.69 979.329l-10.571-29.233 29.233-10.571 10.562 29.225-29.225 10.579zM882.724 831.52l-207.736 75.209c-3.685-9.84-9.028-18.991-15.905-27.28-23.71-28.511-63.777-45.36-119.503-50.12l-1.42-0.049c-0.312 0-31.901-0.066-37.834-16.43-0.090-0.287-2.241-7.23 2.306-12.696 1.568-1.888 4.818-4.645 11.244-7.001 11.514-4.169 35.003-7.518 81.537 0.172l14.535 2.421 3.923-14.247c0.771-2.856 4.104-18.326-5.047-43.596l-71.368-197.084c-4.071-11.268 1.773-23.751 13.033-27.838 11.276-4.087 23.768 1.765 27.855 13.033l52.32 145.675c3.078 8.478 12.475 12.86 20.936 9.807 7.739-2.815 12.081-10.866 10.431-18.687l-2.019-7.247c-3.603-11.892 12.869-18.080 25.425-22.619 11.432-4.145 21.962-4.104 22.061-4.104 0.525 0 1.042-0.041 1.568-0.107 3.012 0.238 5.737-0.164 8.905-1.814 0.016 0 1.961-1.042 5.515-2.323 11.383-4.12 34.281-9.266 60.207 2.659l1.313 0.501c9.947 3.332 20.263 1.937 29.389 0.706 16.701-2.232 27.789-3.71 39.492 15.643 2.602 5.72 31.17 69.308 30.973 108.825-0.082 15.478-1.723 24.662-3.176 32.746-2.618 14.567-3.882 25.343 1.042 45.844z"></path>
	<path class="path2" d="M532.989 905.909c-38.819-0.443-89.67-18.22-107.405-67.191-1.806-4.924-3.209-10.595-4.079-16.701h-317.251v-751.666c0-9.701 7.895-17.588 17.588-17.588h543.051c9.709 0 17.604 7.887 17.604 17.588v483.854l52.771-10.365v-473.488c0-38.795-31.564-70.351-70.351-70.351h-543.060c-38.803 0-70.359 31.564-70.359 70.351v817.371c0 38.811 31.564 70.367 70.351 70.367h458.56l-17.071-47.141c-8.502-2.183-18.564-3.931-30.35-5.039zM424.648 918.942h-62.554v-51.68l31.696-23.423 30.858 23.472v51.63z"></path>
	<path class="path3" d="M214.302 574.968l-52.976-21.675-15.134 36.997 93.568 38.278 42.184-138.584 55.274 66.92 120.578-151.6 192.742-74.643-14.428-37.268-202.853 78.566-96.621 121.481-71.27-86.264z"></path>
	<path class="path4" d="M483.944 244.775c0-56.333-45.664-102.005-102.005-102.005s-101.997 45.664-101.997 102.005c0 56.341 45.664 102.005 101.997 102.005s102.005-45.664 102.005-102.005zM335.38 305.49l5.868-20.427c8.478 4.982 20.649 9.553 33.895 9.553 13.689 0 23.037-6.73 23.037-17.169 0-9.775-7.608-16.078-23.686-21.946-22.824-8.256-37.596-18.696-37.596-38.901 0-18.679 13.041-33.025 34.987-36.94v-21.297h17.826v20.214c13.689 0.435 23.037 3.693 29.972 7.165l-5.86 20.001c-5.211-2.396-14.764-7.386-29.554-7.386-15.216 0-20.641 7.83-20.641 15.208 0 8.913 7.813 13.911 26.287 21.305 24.342 9.126 35.208 20.862 35.208 40.19 0 18.474-12.828 34.773-36.735 38.688v22.389h-17.826v-21.084c-13.665-0.451-27.354-4.358-35.184-9.561z"></path>
</symbol>
<symbol id="icon-linebar-chart2" viewBox="0 0 1024 1024">
	<title>linebar-chart2</title>
	<path class="path1" d="M897.354 204.186c0-18.236-18.519-23.551-32.942-26.776v53.029c16.079-1.089 32.942-8.628 32.942-26.253z"></path>
	<path class="path2" d="M848.333 91.178c-18.214 0.523-30.022 11.264-30.022 22.767 0 13.399 9.978 21.155 30.044 25.164l-0.022-47.931z"></path>
	<path class="path3" d="M855.85 323.904c89.326 0 161.963-72.659 161.963-161.941s-72.659-161.963-161.963-161.963c-89.348 0-162.006 72.659-162.006 161.963 0 89.282 72.659 161.941 162.006 161.941zM784.629 120.089c0-36.384 30.262-55.186 63.726-56.232v-14.249c0-4.597 3.464-9.129 7.996-9.129 4.575 0 8.061 4.532 8.061 9.129v14.249c20.85 0.545 63.748 13.639 63.748 39.935 0 10.436-7.8 16.58-16.885 16.58-17.451 0-17.168-28.65-46.842-29.194v50.894c35.382 7.495 66.668 17.952 66.668 59.195 0 35.861-26.776 54.097-66.668 56.515v16.558c0 4.575-3.486 9.129-8.061 9.129-4.532 0-7.996-4.553-7.996-9.129v-16.558c-45.251-1.111-67.735-28.149-67.735-49.325 0-10.676 6.449-16.863 16.58-16.863 30 0 6.689 36.95 51.177 38.846v-55.992c-39.717-7.233-63.77-24.619-63.77-54.358z"></path>
	<path class="path4" d="M203.815 721.425h-139.631c-25.708 0-46.537 20.85-46.537 46.558v209.436c0.022 25.752 20.872 46.558 46.537 46.558h139.631c25.708 0 46.537-20.806 46.537-46.558v-209.436c0.022-25.708-20.806-46.558-46.537-46.558z"></path>
	<path class="path5" d="M564.691 558.547h-139.631c-25.708 0-46.537 20.85-46.537 46.558v372.358c0 25.752 20.85 46.558 46.537 46.558h139.631c25.708 0 46.558-20.806 46.558-46.558v-372.423c0-25.643-20.828-46.493-46.558-46.493z"></path>
	<path class="path6" d="M925.633 372.358h-139.61c-25.73 0-46.558 20.85-46.558 46.537v558.526c0 25.752 20.85 46.558 46.558 46.558h139.61c25.73 0 46.558-20.806 46.558-46.558v-558.504c0.022-25.708-20.828-46.558-46.558-46.558z"></path>
	<path class="path7" d="M646.522 239.044l-115.579-24.162c-8.845-1.83-17.952 1.59-23.377 8.802-5.425 7.233-6.166 16.928-1.917 24.924l25.621 48.171-512.468 264.339c-11.416 5.904-15.904 19.957-10 31.329 4.139 7.996 12.266 12.593 20.697 12.593 3.595 0 7.233-0.806 10.654-2.593l512.948-264.6 23.508 44.184c4.052 7.625 11.961 12.353 20.545 12.353 0.392 0 0.763-0.022 1.176-0.044 9.020-0.458 16.972-6.079 20.371-14.445l44.641-109.326c2.614-6.405 2.266-13.617-1.002-19.717-3.29-6.035-9.063-10.371-15.817-11.808z"></path>
</symbol>
<symbol id="icon-pie-chart1" viewBox="0 0 1024 1024">
	<title>pie-chart1</title>
	<path class="path1" d="M13.581 592.411c-25.343-130.557 1.643-263.149 75.963-373.396s187.225-184.921 317.742-210.303c24.721-4.804 49.017-7.697 73.817-8.712v469.82l-6.094-1.643 6.094 31.319v14.177l2.932 0.779 92.359 475.291c-24.8 3.75-49.796 5.662-74.713 5.662-237.407-0.105-442.716-169.527-488.1-402.993zM571.944 568.979l88.458 455.021c174.063-40.966 306.262-164.304 359.298-335.048l-41.477-11.055-406.279-108.918zM523.477 0v481.149l464.865 124.581c8.594-36.79 11.794-67.33 11.794-108.297 0.033-267.521-211.953-486.34-476.659-497.434z"></path>
</symbol>
<symbol id="icon-search-money" viewBox="0 0 1024 1024">
	<title>search-money</title>
	<path class="path1" d="M908.275 115.798c-74.677-74.677-173.96-115.798-279.563-115.798s-204.892 41.121-279.563 115.798c-135.978 135.978-151.931 347.144-48.009 500.855l-279.058 279.058c-29.297 29.302-29.297 76.973 0 106.275 14.193 14.198 33.067 22.013 53.138 22.013s38.939-7.815 53.138-22.013l278.98-278.98c64.842 44.005 141.273 67.711 221.37 67.711 105.604 0 204.892-41.121 279.563-115.798 154.154-154.154 154.154-404.967 0.005-559.121zM833.202 599.857c-54.621 54.621-127.242 84.705-204.491 84.705-77.244 0-149.869-30.078-204.491-84.705-112.757-112.757-112.757-296.229 0-408.992 54.621-54.621 127.247-84.705 204.491-84.705 77.249 0 149.874 30.078 204.491 84.705 112.757 112.757 112.757 296.235 0 408.992zM679.709 365.236h-27.188v-99.47h102.959c14.375 0 26.033-11.652 26.033-26.033s-11.657-26.033-26.033-26.033h-102.959v-18.051c0-14.38-11.657-26.033-26.033-26.033s-26.033 11.652-26.033 26.033v18.051h-22.752c-56.126 0-101.787 45.661-101.787 101.818 0 56.126 45.661 101.787 101.787 101.787h22.752v99.47h-98.507c-14.375 0-26.033 11.652-26.033 26.033s11.657 26.033 26.033 26.033h98.507v26.23c0 14.38 11.657 26.033 26.033 26.033s26.033-11.652 26.033-26.033v-26.23h27.188c56.131 0 101.803-45.666 101.803-101.803s-45.671-101.803-101.803-101.803zM577.698 365.236c-27.417 0-49.722-22.305-49.722-49.753 0-27.417 22.305-49.722 49.722-49.722h22.752v99.476h-22.752zM679.709 516.777h-27.188v-99.476h27.188c27.428 0 49.738 22.31 49.738 49.738s-22.315 49.738-49.738 49.738z"></path>
</symbol>
<symbol id="icon-coins4" viewBox="0 0 1024 1024">
	<title>coins4</title>
	<path class="path1" d="M495.644 252.466v72.085c-0.028 37.317-110.978 67.576-247.821 67.576-136.871 0.003-247.793-30.259-247.823-67.574v-72.087c0 37.327 110.952 67.584 247.821 67.584 136.873 0.003 247.823-30.254 247.823-67.584zM495.644 238.817c0 37.335-110.95 67.592-247.821 67.592s-247.823-30.257-247.823-67.592c0-37.33 110.952-67.584 247.821-67.584 136.873-0.003 247.823 30.254 247.823 67.584zM367.45 234.973l-217.706-14.857-7.4 13.304 8.071 1.123c11.061 1.558 25.105 4.969 18.587 16.598l-2.030 3.619 40.241 2.744 2.030-3.626c2.798-5.025 3.662-9.325 2.608-13l146.708 10.005 8.89-15.909zM247.821 410.544c-136.868 0-247.821-30.257-247.821-67.592v72.092c0.030 37.317 110.952 67.579 247.821 67.579 136.843 0 247.793-30.262 247.821-67.579v-72.092c0.003 37.335-110.965 67.592-247.821 67.592zM247.821 501.551c-136.868 0-247.821-30.265-247.821-67.589v72.097c0.030 37.299 110.952 67.554 247.821 67.554 136.843 0 247.793-30.254 247.821-67.554v-72.097c0.003 37.325-110.965 67.589-247.821 67.589zM247.821 590.991c-136.868 0-247.821-30.259-247.821-67.599v72.105c0.030 37.299 110.952 67.571 247.821 67.571 136.843 0 247.793-30.272 247.821-67.571v-72.105c0.003 37.383-110.965 67.599-247.821 67.599zM247.821 679.362c-136.868 0-247.821-30.272-247.821-67.599v72.074c0.030 37.327 110.952 67.584 247.821 67.584 136.843 0 247.793-30.254 247.821-67.584v-72.074c0.003 37.327-110.965 67.599-247.821 67.599zM247.821 767.551c-136.868 0-247.821-30.257-247.821-67.599v72.105c0.030 37.304 110.952 67.571 247.821 67.571 136.843 0 247.793-30.267 247.821-67.571v-72.105c0.003 37.342-110.965 67.599-247.821 67.599zM529.892 257.293h1.809v1.83c39.271 7.141 86.468 11.33 137.251 11.33 136.828 0 247.76-30.257 247.821-67.571v-72.092c0 37.332-110.96 67.592-247.821 67.592-136.863 0-247.826-30.272-247.826-67.607v27.125c59.467 14.297 110.575 39.886 110.575 85.736 0 4.797-0.72 9.285-1.809 13.659zM421.127 117.13c0-37.33 110.965-67.584 247.826-67.584s247.821 30.254 247.821 67.584c0 37.342-110.96 67.604-247.821 67.604-136.863 0-247.826-30.262-247.826-67.604zM549.28 120.977l217.701 14.852 7.42-13.291-8.084-1.118c-11.094-1.566-25.082-4.969-18.623-16.596l2.068-3.641-40.239-2.739-1.999 3.634c-2.831 5.028-3.69 9.333-2.638 13.007l-146.706-10.012-8.9 15.904zM668.952 360.929c136.828 0 247.76-30.254 247.821-67.571v-72.092c0 37.327-110.96 67.592-247.821 67.592-50.783 0-97.98-4.186-137.251-11.35v51.863c-0.033 6.546-1.135 12.632-3.112 18.387h3.112v1.83c39.25 7.171 86.468 11.343 137.251 11.343zM531.701 438.784v1.84c39.271 7.141 86.468 11.327 137.251 11.327 136.828 0 247.76-30.257 247.821-67.576v-72.085c0 37.342-110.96 67.599-247.821 67.599-50.783 0-97.98-4.174-137.251-11.327v51.297c-0.033 6.758-1.252 13.035-3.332 18.927h3.332zM916.773 466.973v-65.235c0 22.556-40.631 42.459-102.866 54.739 27.317 1.221 65.215 4.049 102.866 10.496zM531.701 502.369c24.066-16.383 60.012-27.046 97.144-33.98-35.442-1.574-68.415-5.164-97.144-10.392v44.372zM776.174 631.44c-136.876 0-247.821-30.272-247.821-67.63v72.105c0.068 37.327 110.973 67.587 247.821 67.587 136.884 0 247.795-30.257 247.823-67.587v-72.105c0.020 37.355-110.94 67.63-247.823 67.63zM776.174 482.624c136.884 0 247.823 30.257 247.823 67.571 0 37.33-110.94 67.599-247.823 67.599-136.876 0-247.821-30.267-247.821-67.599 0.003-37.314 110.975-67.571 247.821-67.571zM812.166 548.127l-146.713-10.010-8.874 15.919 217.703 14.862 7.41-13.324-8.071-1.097c-11.051-1.579-25.072-4.974-18.587-16.626l2.025-3.609-40.241-2.732-1.989 3.609c-2.861 5.035-3.735 9.346-2.661 13.007zM776.174 721.902c-136.876 0-247.821-30.27-247.821-67.599v72.12c0.068 37.327 110.973 67.592 247.821 67.592 136.884 0 247.795-30.262 247.823-67.592v-72.074c0.020 37.284-110.94 67.554-247.823 67.554zM776.174 812.908c-136.876 0-247.821-30.254-247.821-67.584v72.092c0.068 37.299 110.973 67.571 247.821 67.571 136.884 0 247.795-30.272 247.823-67.571v-72.092c0.020 37.355-110.94 67.584-247.823 67.584zM776.174 902.394c-136.876 0-247.821-30.275-247.821-67.604v72.105c0.068 37.304 110.973 67.559 247.821 67.559 136.884 0 247.795-30.254 247.823-67.559v-72.105c0.020 37.327-110.94 67.604-247.823 67.604z"></path>
</symbol>
<symbol id="icon-pie-chart2" viewBox="0 0 1024 1024">
	<title>pie-chart2</title>
	<path class="path1" d="M524.451 469.707c2.945 2.939 6.938 4.598 11.103 4.598h471.305c4.454 0 8.699-1.893 11.677-5.202 2.981-3.312 4.413-7.744 3.938-12.165-13.465-126.294-72.461-242.186-166.124-326.336-93.742-84.215-215.521-130.602-342.914-130.602-116.428 0-230.427 40.163-320.993 113.108-3.475 2.798-5.591 6.933-5.831 11.387-0.24 4.457 1.427 8.795 4.579 11.95l333.26 333.263zM460.931 290.693l135.167-201.035c15.51 3.022 30.921 6.919 45.998 11.635l-147.925 222.639-33.239-33.239zM513.436 81.671c4.027 0 8.1 0.055 12.207 0.174l-109.984 163.582-35.626-35.635 88.079-125.759c15.035-1.568 30.264-2.362 45.324-2.362zM377.798 103.468l-42.868 61.218-29.511-29.511c19.112-10.567 39.115-19.722 59.628-27.25 4.2-1.548 8.456-3.028 12.75-4.457zM778.502 392.637l86.042-129.507c5.92 8.354 11.586 16.989 16.942 25.81l-71.162 103.694h-31.823zM886.52 392.637l26.996-39.33c5.128 12.91 9.626 26.064 13.457 39.33h-40.453zM651.968 392.637l139.119-209.389c4.476 3.778 8.807 7.581 12.941 11.368 6.229 5.702 12.458 11.779 18.582 18.115l-119.535 179.903h-51.106zM576.539 392.637h-13.664l-23.387-23.395 162.282-244.24c13.195 6.43 26.080 13.54 38.48 21.234l-163.712 246.401z"></path>
	<path class="path2" d="M456.968 508.833l-319.083-319.086c-3.157-3.149-7.504-4.816-11.953-4.573-4.449 0.237-8.589 2.357-11.387 5.831-72.939 90.56-113.111 204.559-113.111 320.993 0 159.461 72.312 306.978 198.399 404.731 2.776 2.144 6.168 3.292 9.623 3.292 0.936 0 1.879-0.083 2.812-0.259 4.388-0.798 8.23-3.419 10.565-7.22l236.407-384.377c3.806-6.19 2.865-14.185-2.274-19.332zM362.387 529.75l-167.186 271.832c-26.058-28.622-48.045-60.354-65.44-94.493-30.959-60.729-46.657-126.363-46.657-195.088 0-51.054 8.831-100.984 26.257-148.389 7.537-20.522 16.68-40.519 27.25-59.631l225.777 225.768z"></path>
	<path class="path3" d="M1006.859 549.695h-463.575c-5.453 0-10.52 2.826-13.377 7.479l-242.893 394.931c-2.338 3.795-2.95 8.412-1.683 12.687 1.261 4.267 4.283 7.805 8.301 9.72 68.918 32.836 142.872 49.489 219.807 49.489 127.392 0 249.172-46.387 342.914-130.602 93.662-84.149 152.658-200.042 166.124-326.336 0.475-4.424-0.958-8.853-3.938-12.165s-7.225-5.202-11.679-5.202z"></path>
</symbol>
<symbol id="icon-piggy1" viewBox="0 0 1024 1024">
	<title>piggy1</title>
	<path class="path1" d="M966.918 552.008c-6.866-96.717-54.604-184.549-129.341-252.26 36.294-36.992 78.297-116.429 30.345-135.474-47.955-19.026-221.311 56.803-221.311 56.803s-48.463-14.917-112.754-22.409c-9.749 52.333-41.358 96.939-85.041 124.158 7.49 0 15.034 0.135 22.811 0.464 17.582 0 31.856 14.304 31.856 31.891 0 17.635-14.276 31.898-31.856 31.898 0 0-101.045-10.649-207.317 31.891-17.597 0-30.861-14.279-30.861-31.891 0-17.632 6.804-24.912 30.861-31.898 0 0 12.868-5.136 34.888-11.329-43.14-12.277-79.98-39.675-104.317-76.106-115.16 71.835-184.608 189.71-184.608 323.252 0 131.52 30.724 226.188 148.394 301.66 25.58 12.172 25.608 118.284 25.608 118.284l118.318 9.113c0 0-17.218-50.044 13.618-45.242 49.558 14.358 83.765 16.126 141.423 16.126 20.509 0 40.709-0.955 60.59-2.862 5.547-0.521 18.844 35.925 18.844 35.925l81.324-0.551c0 0 18.747-53.849 29.896-62.43 6.637-2.154 13.187-4.433 19.654-6.797 10.858 2.865 10.973 30.697 10.973 30.697l125.516-11.933c0 0-19.487-75.749-10.21-85.054 36.124-25.745 67.626-55.514 93.593-88.552 52.305-57.451 125.913-53.362 125.913-53.362v-157.632c-0.045 0.005-30.233 7.564-46.81-36.379zM808.381 474.316c-22.018 0-39.837-17.851-39.837-39.864 0-22.033 17.797-39.877 39.837-39.877 22.008 0 39.844 17.832 39.844 39.877-0.032 22-17.837 39.864-39.844 39.864zM355.412 324.039c89.312 0 161.962-72.675 161.962-162.057 0-89.327-72.65-161.982-161.962-161.982-89.33 0-161.997 72.655-161.997 161.982 0.017 89.38 72.67 162.057 161.997 162.057zM355.412 35.314c69.835 0 126.638 56.813 126.638 126.668 0 69.888-56.813 126.731-126.638 126.731-69.853 0-126.681-56.843-126.681-126.731 0.012-69.855 56.828-126.668 126.681-126.668zM296.863 138.638l-4.57-34.421 8.876-1.187c28.47-3.785 32.539-17.66 33.122-27.765l0.431-7.375 32.524-4.316 24.703 186.423-38.954 5.171-16.652-125.651c-8.143 3.717-18.288 6.318-30.614 7.958l-8.866 1.162z"></path>
</symbol>
<symbol id="icon-shield1" viewBox="0 0 1024 1024">
	<title>shield1</title>
	<path class="path1" d="M934.019 177.88l-422.019-177.88-422.019 177.88c-47.739 668.815 422.019 846.12 422.019 846.12s469.755-177.305 422.019-846.12zM552.227 696.762v32.071c0 8.15-6.603 14.753-14.756 14.753h-59.013c-8.15 0-14.756-6.606-14.756-14.753v-33.675c-38.847-8.928-74.629-28.58-99.598-54.968-5.597-5.919-5.342-15.258 0.574-20.858l42.871-40.561c2.844-2.692 6.643-4.133 10.548-4.029 3.908 0.106 7.618 1.766 10.31 4.61 18.193 19.232 51.735 32.661 81.578 32.661 24.301 0 65.43-6.649 65.43-31.57 0.185-22.545-11.869-30.74-71.69-48.857-55.603-16.838-139.622-42.284-139.622-140.202 0-55.813 37.833-99.246 99.598-115.558v-35.353c0-8.15 6.609-14.753 14.756-14.753h59.013c8.156 0 14.756 6.606 14.756 14.753v30.524c32.153 4.449 63.24 15.337 86.921 30.64 6.843 4.421 8.803 13.556 4.382 20.399l-32.025 49.571c-4.424 6.843-13.55 8.806-20.399 4.385-17.032-11.006-45.815-18.694-69.998-18.694-25.434 0-68.481 7.181-68.481 34.086 0 26.507 13.632 36.359 76.762 55.476 53.889 16.321 135.325 40.984 134.547 133.951 0.003 58.666-43.396 103.19-111.708 115.953z"></path>
</symbol>
<symbol id="icon-line-chart5" viewBox="0 0 1024 1024">
	<title>line-chart5</title>
	<path class="path1" d="M181.517 629.924c7.422 0 14.937-2.091 21.619-6.442l223.847-145.879 194.456 86.971c5.2 2.326 10.715 3.458 16.193 3.458 9.771 0 19.416-3.611 26.887-10.503l188.74-173.976v31.095c0 21.909 17.758 39.67 39.666 39.67s39.666-17.761 39.666-39.67v-120.902c0-21.909-17.758-39.67-39.666-39.67h-120.905c-21.909 0-39.666 17.761-39.666 39.67s17.758 39.666 39.666 39.666h18.576l-160.632 148.066-190.335-85.127c-5.174-2.314-10.695-3.455-16.19-3.455-7.578 0-15.117 2.172-21.661 6.435l-241.958 157.682c-18.355 11.96-23.54 36.533-11.579 54.896 7.603 11.664 20.308 18.014 33.275 18.014z"></path>
	<path class="path2" d="M984.327 884.839h-109.263v-392.914c-19.183-4.431-35.738-15.813-46.814-31.372l-32.522 29.979v394.307h-132.224v-281.467c-8.239 2.839-16.965 4.33-25.873 4.33-11.229 0-22.126-2.326-32.388-6.915l-21.077-9.427v293.48h-132.224v-352.62l-21.415-9.579-57.921 37.746v324.453h-132.228v-238.283l-15.596 10.165c-12.929 8.42-27.891 12.872-43.269 12.872-7.016 0-13.884-0.932-20.472-2.684v217.927h-81.704v-785.344c0-21.909-17.761-39.666-39.67-39.666-21.905 0-39.666 17.759-39.666 39.666v825.012c0 21.909 17.761 39.666 39.67 39.666h944.66c21.909 0 39.67-17.758 39.67-39.666s-17.764-39.666-39.673-39.666z"></path>
</symbol>
<symbol id="icon-pie-chart3" viewBox="0 0 1024 1024">
	<title>pie-chart3</title>
	<path class="path1" d="M920.956 428.125c-3.919-2.227-8.58-2.746-12.892-1.439l-385.729 117.202c-3.097 0.943-6.31 1.419-9.542 1.419-8.777 0-17.028-3.416-23.229-9.624-8.59-8.59-11.733-21.15-8.202-32.775l117.73-387.48c1.304-4.296 0.795-8.938-1.412-12.846s-5.916-6.747-10.268-7.85c-37.951-9.624-77.026-14.502-116.144-14.502-259.86 0.003-471.266 211.41-471.266 471.263s211.407 471.263 471.263 471.263c259.853 0 471.263-211.407 471.263-471.263 0-37.974-4.622-75.998-13.743-113.020-1.077-4.375-3.909-8.117-7.827-10.347z"></path>
	<path class="path2" d="M1022.791 304.436c-55.498-136.417-165.566-246.487-301.992-301.983-4.27-1.738-9.082-1.6-13.254 0.388-4.168 1.984-7.308 5.633-8.649 10.051l-127.857 420.82c-1.761 5.801-0.187 12.101 4.103 16.387 3.124 3.127 7.322 4.809 11.615 4.809 1.593 0 3.203-0.233 4.769-0.709l420.82-127.864c4.418-1.343 8.067-4.48 10.054-8.649 1.987-4.162 2.128-8.974 0.391-13.25z"></path>
</symbol>
<symbol id="icon-line-chart6" viewBox="0 0 1024 1024">
	<title>line-chart6</title>
	<path class="path1" d="M247.817 715.432h-131.284c-1.774 0-3.208 1.437-3.208 3.208s1.434 3.208 3.208 3.208h125.262l-92.726 98.793c-2.913 3.102-4.475 7.234-4.337 11.488 0.135 4.251 1.954 8.277 5.053 11.187l11.7 10.978c3.099 2.907 7.039 4.344 10.975 4.344 4.276 0 8.543-1.7 11.697-5.062l79.483-84.687v116.584c0 1.771 1.434 3.208 3.208 3.208 1.771 0 3.208-1.437 3.208-3.208v-123.421l37.737-40.204h244.574v163.624c0 1.771 1.434 3.208 3.208 3.208 1.771 0 3.208-1.437 3.208-3.208v-163.624h282.31v163.624c0 1.771 1.434 3.208 3.208 3.208 1.771 0 3.208-1.437 3.208-3.208v-163.624h111.102c1.774 0 3.208-1.437 3.208-3.208s-1.434-3.208-3.208-3.208h-111.102v-282.31h111.102c1.774 0 3.208-1.437 3.208-3.208s-1.434-3.208-3.208-3.208h-111.102v-282.31h111.102c1.774 0 3.208-1.437 3.208-3.208s-1.434-3.208-3.208-3.208h-111.102v-45.965c0-1.771-1.437-3.208-3.208-3.208-1.774 0-3.208 1.437-3.208 3.208v45.965h-282.31v-45.965c0-1.771-1.437-3.208-3.208-3.208-1.774 0-3.208 1.437-3.208 3.208v45.965h-282.31v-45.965c0-1.771-1.437-3.208-3.208-3.208-1.774 0-3.208 1.437-3.208 3.208v45.965h-147.106c-1.774 0-3.208 1.437-3.208 3.208s1.434 3.208 3.208 3.208h147.109v282.31h-147.109c-1.774 0-3.208 1.437-3.208 3.208s1.434 3.208 3.208 3.208h147.109v48.689l-128.721-16.698c-4.225-0.549-8.489 0.603-11.854 3.198-3.372 2.599-5.569 6.426-6.118 10.644l-2.063 15.906c-1.136 8.784 5.059 16.83 13.843 17.968l134.912 17.503v168.234l-15.825 16.865zM313.813 715.432l31.266-33.316 207.286-27.063v60.379h-238.552zM841.095 715.432h-282.31v-61.216l48.795-6.368c3.503-0.459 6.753-2.063 9.258-4.559l124.38-124.293 40.576 52.125c2.611 3.356 6.455 5.54 10.673 6.063 4.215 0.526 8.482-0.648 11.835-3.259l12.656-9.852c6.99-5.441 8.245-15.517 2.804-22.511l-44.246-56.844 51.627-51.599h13.952v282.313zM552.369 426.705h-112.347l112.347-148.332v148.332zM558.785 284.642l110.589 142.063h-110.589v-142.063zM674.365 433.122l37.060 47.608-120.89 120.81-31.753 4.145v-172.562h115.584zM735.351 433.122h23.717l-13.339 13.333-10.378-13.333zM841.095 144.395v282.31h-7.873c1.992-2.73 3.134-6.006 3.134-9.429 0-4.254-1.687-8.335-4.697-11.344l-11.341-11.347c-6.269-6.269-16.422-6.272-22.684-0.006l-32.145 32.126h-35.135l-164.924-211.861c-1.752-2.255-4.065-3.943-6.647-4.985v-65.464h282.31zM270.059 144.395h282.31v64.283c-4.87 0.125-9.432 2.445-12.377 6.336l-160.336 211.691h-109.597v-282.31zM270.059 433.122h104.734l-43.521 57.463-61.213-7.94v-49.523zM270.059 531.167l73.484 9.534c5.733 0.744 11.376-1.636 14.85-6.22l76.769-101.356h117.207v173.403l-224.895 29.36c-3.676 0.481-7.080 2.223-9.618 4.928l-47.794 50.922v-160.57z"></path>
	<path class="path2" d="M1007.96 942.544h-959.839v-893.165c0-8.857-7.18-16.040-16.040-16.040h-16.040c-8.861 0-16.040 7.183-16.040 16.040v925.246c0 8.857 7.18 16.040 16.040 16.040h991.919c8.861 0 16.040-7.183 16.040-16.040v-16.040c0-8.857-7.18-16.040-16.040-16.040z"></path>
</symbol>
<symbol id="icon-line-chart7" viewBox="0 0 1024 1024">
	<title>line-chart7</title>
	<path class="path1" d="M128.868 804.86c-4.084 7.86-1.027 17.545 6.833 21.632l3.561 1.854 2.278 3.311c2.409 3.506 6.111 5.912 10.295 6.689 0.972 0.18 1.947 0.266 2.923 0.266 3.221 0 6.394-0.972 9.088-2.823l99.793-68.611v118.294h6.416v-122.705l59.516-40.916h222.794v163.624h6.416v-163.628h282.31v163.624h6.416v-163.624h111.102v-6.416h-111.102v-282.31h111.102v-6.416h-53.341c1.594-0.786 3.089-1.78 4.36-3.067 2.987-3.028 4.648-7.122 4.616-11.376l-0.577-80.994c-0.032-4.254-1.752-8.322-4.78-11.308-3.003-2.958-7.045-4.616-11.26-4.616-0.038 0-0.080 0-0.119 0l-50.004 0.366v-171.314h111.102v-6.416h-111.102v-45.965h-6.416v45.965h-282.31v-45.965h-6.416v45.965h-282.31v-45.965h-6.416v45.965h-147.103v6.416h147.109v282.31h-147.109v6.416h147.109v112.558l-88.27 169.752h-58.839v6.416h55.5l-43.165 83.012zM226.275 721.848h18.363l-28.581 19.649 10.218-19.649zM352.484 479.132h199.885v74.578h-58.191c-3.247 0-6.413 0.985-9.088 2.823l-215.031 147.838v-66.725l82.425-158.514zM263.642 708.781l-9.672 6.65h-24.362l34.031-65.445v58.794zM668.802 553.71h-110.018v-74.578h58.313c6.063 0 11.604-3.417 14.327-8.829l18.713-37.178h125.49l-106.826 120.585zM338.904 715.432l165.238-113.601h48.227v113.601h-213.465zM841.095 715.432h-282.31v-113.601h124.454c4.591 0 8.963-1.967 12.005-5.406l144.671-163.304h1.181v282.31zM847.511 426.705v-2.156l18.555-20.945 0.064 9.002c0.045 6.172 3.615 11.459 8.742 14.103h-27.362zM841.095 144.395v171.362l-24.58 0.18c-4.251 0.032-8.322 1.752-11.305 4.783-2.987 3.028-4.645 7.122-4.616 11.376l0.119 16.040c0.067 8.857 7.318 15.934 16.159 15.922l20.070-0.148-55.631 62.795h-127.947l96.505-191.746 6.917 16.711c3.391 8.187 12.781 12.072 20.955 8.684l14.818-6.134c3.933-1.626 7.055-4.748 8.684-8.678s1.63-8.344 0.003-12.277l-30.98-74.838c-1.63-3.93-4.754-7.055-8.681-8.684-3.936-1.63-8.347-1.63-12.28 0l-74.838 31.003c-3.93 1.626-7.051 4.751-8.678 8.681-1.63 3.933-1.63 8.347 0 12.277l6.14 14.818c3.391 8.184 12.771 12.072 20.958 8.678l10.125-4.196-103.524 205.698h-40.707v-282.31h282.317zM270.059 144.395h282.31v282.31h-282.31v-282.31zM270.059 433.122h55.047c-2.643 1.501-4.873 3.728-6.33 6.528l-48.718 93.692v-100.22z"></path>
	<path class="path2" d="M1007.96 942.544h-959.839v-893.165c0-8.857-7.18-16.040-16.040-16.040h-16.040c-8.861 0-16.040 7.183-16.040 16.040v925.246c0 8.857 7.18 16.040 16.040 16.040h991.919c8.861 0 16.040-7.183 16.040-16.040v-16.040c0-8.857-7.18-16.040-16.040-16.040z"></path>
</symbol>
<symbol id="icon-pie-chart4" viewBox="0 0 1024 1024">
	<title>pie-chart4</title>
	<path class="path1" d="M866.049 455.904c-8.528-4.882-18.692-5.916-28.018-2.94l-327.318 104.522c-12.369 3.948-25.882 0.735-35.143-8.358-9.263-9.094-12.773-22.535-9.060-34.976l98.101-329.22c2.808-9.364 1.504-19.499-3.479-27.886-4.982-8.428-13.305-14.378-22.868-16.386-29.294-6.117-59.588-9.429-90.649-9.429-246.531 0-446.386 199.888-446.386 446.383 0 246.567 199.855 446.386 446.386 446.386 246.498 0 446.35-199.819 446.35-446.386 0-34.035-3.874-67.207-11.165-99.104-2.138-9.567-8.258-17.76-16.75-22.607z"></path>
	<path class="path2" d="M1021.162 315.204c-48.216-151.205-167.886-268.534-320.090-313.81-17.689-5.251-36.381 4.784-41.663 22.537l-127.428 427.631c-3.546 11.9-0.239 24.81 8.624 33.503 6.352 6.216 14.847 9.561 23.476 9.561 3.407 0 6.819-0.505 10.166-1.573l425.216-135.755c17.62-5.651 27.352-24.474 21.699-42.094zM614.265 409.96l99.41-333.498c105.362 40.858 189.286 123.114 232.254 227.604l-331.664 105.894z"></path>
</symbol>
<symbol id="icon-chart-pc2" viewBox="0 0 1024 1024">
	<title>chart-pc2</title>
	<path class="path1" d="M1006.367 813.673h-54.784l-0.003-301.122v-201.203c0-21.321-17.288-38.617-38.614-38.617h-43.651l-27.633 67.189h42.712v447.327h-744.442v-447.327h97.968l81.436-67.189h-207.974c-21.329 0-38.62 17.294-38.62 38.617v502.324h-55.128c-9.74 0-17.635 7.896-17.635 17.643 0 41.867 34.065 75.935 75.938 75.935h613.548v-32.834c0-11.68 9.468-21.151 21.154-21.151 11.68 0 21.149 9.474 21.149 21.151v32.834h34.686v-32.834c0-11.68 9.471-21.151 21.151-21.151 11.683 0 21.154 9.474 21.154 21.151v32.834h139.277c41.878 0 75.943-34.071 75.943-75.935 0-9.748-7.893-17.643-17.633-17.643z"></path>
	<path class="path2" d="M240.294 421.358l129.762-93.923 104.385 126.152 263.658-178.559 39.919 48.349c1.69 2.050 4.199 3.211 6.813 3.211 0.438 0 0.879-0.034 1.32-0.099 3.070-0.464 5.671-2.507 6.852-5.378l79.036-192.167c1.242-3.018 0.72-6.471-1.359-8.986-1.695-2.058-4.213-3.211-6.816-3.211-0.582 0-1.169 0.057-1.75 0.175l-203.654 41.225c-3.044 0.616-5.54 2.783-6.576 5.71s-0.462 6.182 1.515 8.576l36.382 44.066-210.655 181.548-106.531-101.969-7.499 6.555-132.845 109.596c0.72 0.861 7.379 8.227 8.044 9.129z"></path>
	<path class="path3" d="M531.129 651.724v68.686c0 11.526 9.343 20.867 20.867 20.867 11.526 0 20.867-9.341 20.867-20.867v-68.686c0-11.526-9.341-20.867-20.867-20.867-11.524 0-20.867 9.341-20.867 20.867z"></path>
	<path class="path4" d="M473.744 544.781c-11.524 0-20.867 9.341-20.867 20.867v154.763c0 11.526 9.343 20.867 20.867 20.867 11.526 0 20.867-9.341 20.867-20.867v-154.763c0-11.526-9.343-20.867-20.867-20.867z"></path>
	<path class="path5" d="M374.626 651.724v68.686c0 11.526 9.343 20.867 20.867 20.867 11.526 0 20.867-9.341 20.867-20.867v-68.686c0-11.526-9.341-20.867-20.867-20.867-11.524 0-20.867 9.341-20.867 20.867z"></path>
	<path class="path6" d="M296.374 565.648v154.763c0 11.526 9.343 20.867 20.867 20.867 11.526 0 20.867-9.341 20.867-20.867v-154.763c0-11.526-9.341-20.867-20.867-20.867s-20.867 9.341-20.867 20.867z"></path>
	<path class="path7" d="M233.327 490.8c-1.815 0.511-3.524 1.262-5.102 2.217-6.046 3.654-10.102 10.272-10.102 17.854v209.539c0 11.526 9.343 20.867 20.867 20.867 11.526 0 20.867-9.341 20.867-20.867v-209.539c0-11.526-9.341-20.867-20.867-20.867-1.964 0-3.86 0.29-5.663 0.796z"></path>
	<path class="path8" d="M817.179 594.776h-95.641c-11.524 0-20.867 9.341-20.867 20.867 0 11.524 9.343 20.867 20.867 20.867h95.641c11.524 0 20.867-9.343 20.867-20.867 0-11.526-9.341-20.867-20.867-20.867z"></path>
	<path class="path9" d="M817.179 686.069h-95.641c-11.524 0-20.867 9.341-20.867 20.867 0 11.524 9.343 20.867 20.867 20.867h95.641c11.524 0 20.867-9.343 20.867-20.867 0-11.526-9.341-20.867-20.867-20.867z"></path>
</symbol>
<symbol id="icon-bar-chart1" viewBox="0 0 1024 1024">
	<title>bar-chart1</title>
	<path class="path1" d="M981.546 729.642h-736.818v-618.864c0-22.035-17.868-39.9-39.903-39.9-22.033 0-39.898 17.865-39.898 39.9v618.866h-125.028c-22.033-0.003-39.9 17.863-39.9 39.898 0 22.033 17.868 39.9 39.9 39.9h125.028v103.779c0 22.040 17.865 39.9 39.898 39.9 22.035 0 39.903-17.86 39.903-39.9v-103.779h736.818c22.030 0 39.9-17.868 39.9-39.9 0-22.035-17.87-39.9-39.9-39.9z"></path>
	<path class="path2" d="M339.631 650.14h109.805c7.053 0 12.768-5.718 12.768-12.768v-254.33c0-7.051-5.715-12.768-12.768-12.768h-109.805c-7.053 0-12.768 5.718-12.768 12.768v254.33c0 7.051 5.715 12.768 12.768 12.768z"></path>
	<path class="path3" d="M518.384 650.14h109.805c7.053 0 12.768-5.718 12.768-12.768v-111.994c-10.799-7.199-20.963-15.516-30.35-24.9-37.247-37.247-57.758-86.769-57.758-139.445 0-34.956 9.083-68.496 26.042-98.008h-60.508c-7.053 0-12.768 5.718-12.768 12.768v361.582c0 7.048 5.715 12.766 12.768 12.766z"></path>
	<path class="path4" d="M684.369 547.066v90.306c0 7.051 5.715 12.768 12.768 12.768h109.805c7.053 0 12.768-5.718 12.768-12.768v-91.774c-22.050 8.332-45.554 12.646-69.647 12.646-22.732-0.003-44.87-3.841-65.694-11.177z"></path>
	<path class="path5" d="M750.063 521.206c33.371 0 65.161-10.179 91.897-28.994l134.622 134.622c5.426 5.424 12.536 8.133 19.64 8.133 7.109 0 14.219-2.712 19.642-8.133 10.845-10.848 10.845-28.437 0-39.282l-134.624-134.622c18.818-26.741 28.991-58.529 28.991-91.902 0-42.783-16.657-83.008-46.912-113.261-30.255-30.255-70.477-46.915-113.261-46.915-42.786 0-83.008 16.662-113.263 46.915-30.25 30.255-46.91 70.48-46.91 113.263s16.66 83.008 46.912 113.258c30.258 30.258 70.48 46.918 113.266 46.918zM669.533 280.504c21.514-21.509 50.11-33.355 80.531-33.355 30.416 0 59.017 11.846 80.523 33.355 21.514 21.512 33.355 50.11 33.355 80.528s-11.841 59.017-33.355 80.526c-21.507 21.512-50.107 33.358-80.523 33.358-30.421 0-59.017-11.846-80.531-33.358-21.507-21.509-33.353-50.11-33.353-80.526 0-30.421 11.846-59.017 33.353-80.528z"></path>
	<path class="path6" d="M738.932 413.683v21.716c0 2.296 1.864 4.157 4.16 4.157h15.028c2.296 0 4.157-1.862 4.157-4.157v-21.021c23.399-2.888 37.903-16.524 37.903-35.697 0-25.393-21.943-31.675-39.573-36.724-13.652-3.91-21.941-6.8-21.941-13.989 0-4.946 4.413-7.783 12.107-7.783 8.575 0 22.15 4.139 33.774 10.304 1.001 0.531 2.168 0.636 3.246 0.276 1.073-0.352 1.956-1.126 2.449-2.145l8.184-16.984c0.942-1.956 0.22-4.308-1.66-5.398-9.747-5.664-21.974-9.551-34.487-10.975v-19.688c0-2.296-1.859-4.157-4.157-4.157h-15.028c-2.296 0-4.16 1.862-4.16 4.157v20.567c-20.508 4.096-32.735 16.956-32.735 34.489 0 24.686 21.673 30.623 39.093 35.393 13.948 3.823 22.416 6.683 22.416 14.157 0 8.223-9.042 9.448-14.433 9.448-11.246 0-27.038-6.029-38.396-14.663-0.986-0.748-2.252-1.019-3.452-0.741-1.205 0.278-2.222 1.078-2.778 2.181l-8.264 16.407c-0.901 1.79-0.396 3.966 1.198 5.179 10.38 7.896 23.626 13.458 37.349 15.692z"></path>
</symbol>
<symbol id="icon-wallet1" viewBox="0 0 1024 1024">
	<title>wallet1</title>
	<path class="path1" d="M239.297 207.629l408.22-111.427-21.618-43.697c-14.144-28.403-48.641-40.132-77.044-25.988l-365.443 181.112h55.886z"></path>
	<path class="path2" d="M774.238 99.422c-5.058 0-10.119 0.69-15.179 2.070l-388.787 106.137h477.33l-17.939-65.775c-6.899-25.643-30.128-42.432-55.426-42.432z"></path>
	<path class="path3" d="M907.514 247.876h-849.903c-18.169 0-34.382 8.394-44.962 21.618-4.83 6.095-8.509 13.109-10.579 20.813-1.265 4.83-2.070 9.889-2.070 15.064v640.618c0 31.739 25.758 57.496 57.496 57.496h849.903c31.739 0 57.496-25.757 57.496-57.496v-160.413h-341.18c-53.931 0-97.743-43.812-97.743-97.743v-127.871c0-26.448 10.578-50.48 27.713-68.074 15.179-15.64 35.532-26.219 58.301-28.864 3.795-0.459 7.704-0.69 11.614-0.69h341.295v-156.964c0.115-31.738-25.643-57.496-57.381-57.496z"></path>
	<path class="path4" d="M1005.256 517.301c-5.75-5.29-12.534-9.314-20.124-11.959-5.866-1.954-12.074-3.104-18.629-3.104h-342.79c-31.739 0-57.496 25.757-57.496 57.496v127.984c0 31.738 25.757 57.496 57.496 57.496h342.79c6.555 0 12.764-1.15 18.629-3.105 7.589-2.53 14.374-6.67 20.124-11.959 11.499-10.464 18.744-25.643 18.744-42.431v-127.986c0-16.79-7.244-31.97-18.744-42.433zM743.766 635.167c0 15.869-12.879 28.748-28.748 28.748h-19.089c-15.869 0-28.748-12.879-28.748-28.748v-19.089c0-9.199 4.255-17.365 11.039-22.539 4.945-3.795 11.040-6.208 17.709-6.208h19.089c15.869 0 28.748 12.878 28.748 28.748v19.089z"></path>
</symbol>
<symbol id="icon-search" viewBox="0 0 951 1024">
	<title>search</title>
	<path class="path1" d="M658.286 475.429q0-105.714-75.143-180.857t-180.857-75.143-180.857 75.143-75.143 180.857 75.143 180.857 180.857 75.143 180.857-75.143 75.143-180.857zM950.857 950.857q0 29.714-21.714 51.429t-51.429 21.714q-30.857 0-51.429-21.714l-196-195.429q-102.286 70.857-228 70.857-81.714 0-156.286-31.714t-128.571-85.714-85.714-128.571-31.714-156.286 31.714-156.286 85.714-128.571 128.571-85.714 156.286-31.714 156.286 31.714 128.571 85.714 85.714 128.571 31.714 156.286q0 125.714-70.857 228l196 196q21.143 21.143 21.143 51.429z"></path>
</symbol>
<symbol id="icon-gear" viewBox="0 0 1024 1024">
	<title>gear</title>
	<path class="path1" d="M585.143 512q0-60.571-42.857-103.429t-103.429-42.857-103.429 42.857-42.857 103.429 42.857 103.429 103.429 42.857 103.429-42.857 42.857-103.429zM877.714 449.714v126.857q0 6.857-4.571 13.143t-11.429 7.429l-105.714 16q-10.857 30.857-22.286 52 20 28.571 61.143 78.857 5.714 6.857 5.714 14.286t-5.143 13.143q-15.429 21.143-56.571 61.714t-53.714 40.571q-6.857 0-14.857-5.143l-78.857-61.714q-25.143 13.143-52 21.714-9.143 77.714-16.571 106.286-4 16-20.571 16h-126.857q-8 0-14-4.857t-6.571-12.286l-16-105.143q-28-9.143-51.429-21.143l-80.571 61.143q-5.714 5.143-14.286 5.143-8 0-14.286-6.286-72-65.143-94.286-96-4-5.714-4-13.143 0-6.857 4.571-13.143 8.571-12 29.143-38t30.857-40.286q-15.429-28.571-23.429-56.571l-104.571-15.429q-7.429-1.143-12-7.143t-4.571-13.429v-126.857q0-6.857 4.571-13.143t10.857-7.429l106.286-16q8-26.286 22.286-52.571-22.857-32.571-61.143-78.857-5.714-6.857-5.714-13.714 0-5.714 5.143-13.143 14.857-20.571 56.286-61.429t54-40.857q7.429 0 14.857 5.714l78.857 61.143q25.143-13.143 52-21.714 9.143-77.714 16.571-106.286 4-16 20.571-16h126.857q8 0 14 4.857t6.571 12.286l16 105.143q28 9.143 51.429 21.143l81.143-61.143q5.143-5.143 13.714-5.143 7.429 0 14.286 5.714 73.714 68 94.286 97.143 4 4.571 4 12.571 0 6.857-4.571 13.143-8.571 12-29.143 38t-30.857 40.286q14.857 28.571 23.429 56l104.571 16q7.429 1.143 12 7.143t4.571 13.429z"></path>
</symbol>
<symbol id="icon-money" viewBox="0 0 1097 1024">
	<title>money</title>
	<path class="path1" d="M438.857 658.286h219.429v-54.857h-73.143v-256h-65.143l-84.571 78.286 44 45.714q24-21.143 31.429-32.571h1.143v164.571h-73.143v54.857zM731.429 512q0 40-12 81.143t-34 76.571-58 57.714-78.857 22.286-78.857-22.286-58-57.714-34-76.571-12-81.143 12-81.143 34-76.571 58-57.714 78.857-22.286 78.857 22.286 58 57.714 34 76.571 12 81.143zM1024 658.286v-292.571q-60.571 0-103.429-42.857t-42.857-103.429h-658.286q0 60.571-42.857 103.429t-103.429 42.857v292.571q60.571 0 103.429 42.857t42.857 103.429h658.286q0-60.571 42.857-103.429t103.429-42.857zM1097.143 182.857v658.286q0 14.857-10.857 25.714t-25.714 10.857h-1024q-14.857 0-25.714-10.857t-10.857-25.714v-658.286q0-14.857 10.857-25.714t25.714-10.857h1024q14.857 0 25.714 10.857t10.857 25.714z"></path>
</symbol>
<symbol id="icon-save" viewBox="0 0 1097 1024">
	<title>save</title>
	<path class="path1" d="M731.429 493.714q0-8-5.143-13.143l-201.143-201.143q-5.143-5.143-13.143-5.143t-13.143 5.143l-200.571 200.571q-5.714 6.857-5.714 13.714 0 8 5.143 13.143t13.143 5.143h128v201.143q0 7.429 5.429 12.857t12.857 5.429h109.714q7.429 0 12.857-5.429t5.429-12.857v-201.143h128q7.429 0 12.857-5.429t5.429-12.857zM1097.143 658.286q0 90.857-64.286 155.143t-155.143 64.286h-621.714q-105.714 0-180.857-75.143t-75.143-180.857q0-74.286 40-137.143t107.429-94.286q-1.143-17.143-1.143-24.571 0-121.143 85.714-206.857t206.857-85.714q89.143 0 163.143 49.714t107.714 132q40.571-35.429 94.857-35.429 60.571 0 103.429 42.857t42.857 103.429q0 43.429-23.429 78.857 74.286 17.714 122 77.429t47.714 136.286z"></path>
</symbol>
<symbol id="icon-dollar" viewBox="0 0 585 1024">
	<title>dollar</title>
	<path class="path1" d="M558.857 677.143q0 87.429-56.857 150.571t-147.714 78v100q0 8-5.143 13.143t-13.143 5.143h-77.143q-7.429 0-12.857-5.429t-5.429-12.857v-100q-37.714-5.143-72.857-17.714t-58-25.429-42.286-27.429-26.571-21.429-10-10.286q-9.714-12-1.143-23.429l58.857-77.143q4-5.714 13.143-6.857 8.571-1.143 13.714 5.143l1.143 1.143q64.571 56.571 138.857 71.429 21.143 4.571 42.286 4.571 46.286 0 81.429-24.571t35.143-69.714q0-16-8.571-30.286t-19.143-24-33.429-21.429-37.714-18.286-45.714-18.571q-22.286-9.143-35.143-14.286t-35.143-15.143-35.714-17.714-32.286-20.286-30.571-24.286-24.857-28-20.286-33.143-12-38-4.857-44.571q0-78.857 56-138.286t145.714-76.571v-102.857q0-7.429 5.429-12.857t12.857-5.429h77.143q8 0 13.143 5.143t5.143 13.143v100.571q32.571 3.429 63.143 13.143t49.714 19.143 36.286 21.429 22.286 16.571 8.571 8q9.714 10.286 2.857 21.714l-46.286 83.429q-4.571 8.571-13.143 9.143-8 1.714-15.429-4-1.714-1.714-8.286-6.857t-22.286-15.143-33.429-18.286-42.571-14.857-48.857-6.571q-54.286 0-88.571 24.571t-34.286 63.429q0 14.857 4.857 27.429t16.857 23.714 22.571 18.857 32 17.714 34.571 15.429 40 15.714q30.286 11.429 46.286 18t43.429 20 43.143 24.286 35.429 28.571 30.286 36.286 18 43.714 7.429 53.714z"></path>
</symbol>
<symbol id="icon-app-menu" viewBox="0 0 1024 1024">
	<title>app-menu</title>
	<path class="path1" d="M682 854v-172h172v172h-172zM682 598v-172h172v172h-172zM426 342v-172h172v172h-172zM682 170h172v172h-172v-172zM426 598v-172h172v172h-172zM170 598v-172h172v172h-172zM170 854v-172h172v172h-172zM426 854v-172h172v172h-172zM170 342v-172h172v172h-172z"></path>
</symbol>
<symbol id="icon-check" viewBox="0 0 1024 1024">
	<title>check</title>
	<path class="path1" d="M384 690l452-452 60 60-512 512-238-238 60-60z"></path>
</symbol>
<symbol id="icon-close" viewBox="0 0 1024 1024">
	<title>close</title>
	<path class="path1" d="M810 274l-238 238 238 238-60 60-238-238-238 238-60-60 238-238-238-238 60-60 238 238 238-238z"></path>
</symbol>
<symbol id="icon-user" viewBox="0 0 1024 1024">
	<title>user</title>
	<path class="path1" d="M512 598q108 0 225 47t117 123v86h-684v-86q0-76 117-123t225-47zM512 512q-70 0-120-50t-50-120 50-121 120-51 120 51 50 121-50 120-120 50z"></path>
</symbol>
<symbol id="icon-customer" viewBox="0 0 1024 1024">
	<title>customer</title>
	<path class="path1" d="M320 192c0-106.039 85.961-192 192-192s192 85.961 192 192c0 106.039-85.961 192-192 192s-192-85.961-192-192zM768.078 448h-35.424l-199.104 404.244 74.45-372.244-96-96-96 96 74.45 372.244-199.102-404.244h-35.424c-127.924 0-127.924 85.986-127.924 192v320h768v-320c0-106.014 0-192-127.922-192z"></path>
</symbol>
<symbol id="icon-menu" viewBox="0 0 1024 1024">
	<title>menu</title>
	<path class="path1" d="M64 192h896v192h-896zM64 448h896v192h-896zM64 704h896v192h-896z"></path>
</symbol>
</defs>
</svg>
